<svg width="44" height="44" viewBox="0 0 44 44" fill="none" xmlns="http://www.w3.org/2000/svg">
<circle cx="22" cy="22" r="22" fill="#8CBE3B"/>
<g clip-path="url(#clip0_33_505)">
<path d="M22.7499 18.625C22.7499 19.246 22.2459 19.75 21.6249 19.75C21.0039 19.75 20.4999 19.246 20.4999 18.625C20.4999 18.004 21.0039 17.5 21.6249 17.5C22.2459 17.5 22.7499 18.004 22.7499 18.625ZM17.1249 13C16.5039 13 15.9999 13.504 15.9999 14.125C15.9999 14.746 16.5039 15.25 17.1249 15.25C17.7459 15.25 18.2499 14.746 18.2499 14.125C18.2499 13.504 17.7459 13 17.1249 13ZM18.3182 19.4058L21.6932 14.1558C21.9167 13.8078 21.8162 13.3435 21.4674 13.1193C21.1202 12.895 20.6552 12.9963 20.4309 13.345L17.0559 18.595C16.8324 18.943 16.9329 19.4073 17.2817 19.6315C17.4069 19.7118 17.5472 19.7508 17.6867 19.7508C17.9334 19.7508 18.1749 19.6285 18.3182 19.4058ZM30.3632 19.5108C29.9769 19.159 29.4737 18.9768 28.9547 19.0023C28.4319 19.0263 27.9504 19.2528 27.6092 19.6285L24.9534 22.4313C24.9774 22.5888 25.0022 22.7463 25.0022 22.9098C25.0022 24.472 23.8359 25.8168 22.2894 26.0373L19.1004 26.4843C18.6902 26.5428 18.3107 26.2578 18.2522 25.8483C18.1937 25.438 18.4787 25.0585 18.8882 25L22.0097 24.5628C22.7117 24.4623 23.3207 23.9583 23.4647 23.2638C23.6867 22.195 22.8722 21.25 21.8417 21.25H16.0014C14.3454 21.25 13.0022 22.5933 13.0022 24.25V28C13.0022 29.6568 14.3454 31 16.0022 31H19.1987C21.3024 31 23.3087 30.1165 24.7292 28.5655L30.5057 22.2588C31.2167 21.4623 31.1522 20.2285 30.3639 19.51L30.3632 19.5108Z" fill="#24273D"/>
</g>
<defs>
<clipPath id="clip0_33_505">
<rect width="18" height="18" fill="white" transform="translate(13 13)"/>
</clipPath>
</defs>
</svg>
