<svg width="56" height="36" viewBox="0 0 56 36" fill="none" xmlns="http://www.w3.org/2000/svg">
<rect x="0.5" y="0.5" width="55" height="35" rx="11.5" stroke="#8CBE3B"/>
<path d="M14.12 24V12.48H20.944V14.152H15.792V17.4H19.984V19.08H15.792V24H14.12ZM21.4294 24L25.1734 12.48H27.5814L31.3254 24H29.5894L26.1414 13.488H26.5734L23.1654 24H21.4294ZM23.3734 21.4V19.832H29.3894V21.4H23.3734ZM41.4801 24.232L38.2641 21.032L39.3361 19.96L42.5361 23.16L41.4801 24.232ZM37.2561 24.24C36.1041 24.24 35.1228 23.9893 34.3121 23.488C33.5015 22.9813 32.8801 22.2773 32.4481 21.376C32.0215 20.4747 31.8081 19.4293 31.8081 18.24C31.8081 17.0507 32.0215 16.0053 32.4481 15.104C32.8801 14.2027 33.5015 13.5013 34.3121 13C35.1228 12.4933 36.1041 12.24 37.2561 12.24C38.4028 12.24 39.3815 12.4933 40.1921 13C41.0081 13.5013 41.6295 14.2027 42.0561 15.104C42.4828 16.0053 42.6961 17.0507 42.6961 18.24C42.6961 19.4293 42.4828 20.4747 42.0561 21.376C41.6295 22.2773 41.0081 22.9813 40.1921 23.488C39.3815 23.9893 38.4028 24.24 37.2561 24.24ZM37.2561 22.648C38.0721 22.6587 38.7495 22.48 39.2881 22.112C39.8321 21.7387 40.2401 21.2213 40.5121 20.56C40.7841 19.8933 40.9201 19.12 40.9201 18.24C40.9201 17.36 40.7841 16.592 40.5121 15.936C40.2401 15.2747 39.8321 14.76 39.2881 14.392C38.7495 14.024 38.0721 13.8373 37.2561 13.832C36.4401 13.8213 35.7601 14 35.2161 14.368C34.6775 14.736 34.2721 15.2533 34.0001 15.92C33.7281 16.5867 33.5895 17.36 33.5841 18.24C33.5788 19.12 33.7121 19.8907 33.9841 20.552C34.2561 21.208 34.6641 21.72 35.2081 22.088C35.7575 22.456 36.4401 22.6427 37.2561 22.648Z" fill="#8CBE3B"/>
</svg>
