<svg width="44" height="44" viewBox="0 0 44 44" fill="none" xmlns="http://www.w3.org/2000/svg">
<circle cx="22" cy="22" r="22" fill="#8CBE3B"/>
<g clip-path="url(#clip0_33_523)">
<path d="M16.7403 19.353V18.2941C16.7403 15.3751 19.1 13 22 13C24.9001 13 27.2597 15.3751 27.2597 18.2941V19.353C28.4217 19.353 29.3636 20.301 29.3636 21.4707V28.8824C29.3635 30.0519 28.4217 31 27.2597 31H16.7403C15.5784 31 14.6364 30.0518 14.6364 28.8823V21.4706C14.6365 20.301 15.5784 19.353 16.7403 19.353ZM25.1558 18.2941C25.1558 16.5425 23.7402 15.1177 22 15.1177C20.2598 15.1177 18.8442 16.5425 18.8442 18.2941V19.353H25.1558V18.2941ZM20.9482 25.7059C20.9482 26.2906 21.4192 26.7647 22.0001 26.7647C22.5811 26.7647 23.0521 26.2906 23.0521 25.7059V23.5882C23.0521 23.0034 22.5811 22.5293 22.0001 22.5293C21.4192 22.5293 20.9482 23.0034 20.9482 23.5882V25.7059Z" fill="#24273D"/>
</g>
<defs>
<clipPath id="clip0_33_523">
<rect width="18" height="18" fill="white" transform="matrix(-1 0 0 1 31 13)"/>
</clipPath>
</defs>
</svg>
