<svg width="20" height="20" viewBox="0 0 20 20" fill="none" xmlns="http://www.w3.org/2000/svg">
<g clip-path="url(#clip0_200_372)">
<path d="M0 4.62219V15.245C0 16.3579 0.7143 17.4708 1.8367 17.8754L6.9388 19.7977C7.2449 19.8988 7.551 20 7.9592 20C8.4694 20 9.0816 19.7977 9.5918 19.4942C9.7959 19.2918 10.102 19.0895 10.2041 18.8871H14.0816C15.6122 18.8871 16.9388 17.6731 16.9388 16.0544V15.0427C16.9388 14.638 16.6326 14.2333 16.1224 14.2333C15.6122 14.2333 15.3061 14.5368 15.3061 15.0427V16.0544C15.3061 16.7626 14.6939 17.2684 14.0816 17.2684H10.7143V2.69997H14.0816C14.7959 2.69997 15.3061 3.20582 15.3061 3.91401V4.9257C15.3061 5.33038 15.6122 5.73506 16.1224 5.73506C16.6326 5.73506 16.9388 5.33038 16.9388 4.9257V3.91401C16.9388 2.39646 15.7143 1.08125 14.0816 1.08125H10.2041C10 0.878914 9.7959 0.676574 9.5918 0.474234C8.7755 -0.0316157 7.8571 -0.132786 6.9388 0.170724L1.8367 2.09295C0.8163 2.39646 0 3.50933 0 4.62219Z" fill="#FF6868"/>
<path d="M17.1429 12.8169C17.3469 12.8169 17.551 12.7158 17.6531 12.6146L19.6939 10.5912C19.7959 10.49 19.7959 10.3889 19.898 10.3889C19.898 10.2877 20 10.1865 20 10.0854C20 9.9842 20 9.883 19.898 9.7819C19.898 9.6807 19.7959 9.5795 19.6939 9.5795L17.6531 7.55612C17.3469 7.25261 16.8367 7.25261 16.5306 7.55612C16.2245 7.85963 16.2245 8.3655 16.5306 8.669L17.2449 9.3772H13.0612C12.6531 9.3772 12.2449 9.6807 12.2449 10.1865C12.2449 10.6924 12.6531 10.7936 13.0612 10.7936H17.3469L16.6327 11.5017C16.3265 11.8052 16.3265 12.3111 16.6327 12.6146C16.7347 12.7158 16.9388 12.8169 17.1429 12.8169Z" fill="#FF6868"/>
</g>
<defs>
<clipPath id="clip0_200_372">
<rect width="20" height="20" fill="white" transform="matrix(-1 0 0 1 20 0)"/>
</clipPath>
</defs>
</svg>
