<svg width="24" height="25" viewBox="0 0 24 25" fill="none" xmlns="http://www.w3.org/2000/svg">
<path d="M23.4561 10.1601L21.4662 8.25206C21.1751 7.983 20.8019 7.81003 20.4011 7.75834C20.0002 7.70665 19.5926 7.77894 19.2376 7.96467C18.8872 8.13784 18.4884 8.19977 18.0988 8.14152C17.7092 8.08327 17.3491 7.90785 17.0703 7.6406C16.7916 7.37335 16.6087 7.02811 16.5481 6.65473C16.4875 6.28136 16.5523 5.89918 16.7331 5.5634C16.9263 5.22296 17.0013 4.83238 16.9472 4.44832C16.8931 4.06427 16.7127 3.70673 16.4322 3.42758L14.4413 1.52053C14.0922 1.18718 13.6195 1 13.1268 1C12.634 1 12.1613 1.18718 11.8122 1.52053L0.543911 12.3198C0.195623 12.6541 0 13.1072 0 13.5796C0 14.052 0.195623 14.5051 0.543911 14.8394L2.53379 16.7475C2.82492 17.0166 3.19808 17.1895 3.59893 17.2412C3.99977 17.2929 4.40736 17.2206 4.76235 17.0348C5.11279 16.8617 5.51159 16.7997 5.90116 16.858C6.29072 16.9162 6.65089 17.0917 6.92962 17.3589C7.20836 17.6262 7.39125 17.9714 7.45187 18.3448C7.51249 18.7182 7.44771 19.1003 7.26687 19.4361C7.07367 19.7766 6.99867 20.1671 7.05278 20.5512C7.10688 20.9352 7.28727 21.2928 7.56776 21.5719L9.5587 23.479C9.90759 23.8126 10.3803 24 10.8732 24C11.3661 24 11.8388 23.8126 12.1877 23.479L23.4561 12.6797C23.8044 12.3454 24 11.8923 24 11.4199C24 10.9475 23.8044 10.4944 23.4561 10.1601ZM8.99514 12.798C8.78501 12.798 8.57961 12.7383 8.4049 12.6264C8.23018 12.5145 8.09401 12.3555 8.0136 12.1695C7.93319 11.9834 7.91215 11.7787 7.95315 11.5812C7.99414 11.3837 8.09532 11.2022 8.2439 11.0599C8.39248 10.9175 8.58179 10.8205 8.78787 10.7812C8.99396 10.7419 9.20757 10.7621 9.4017 10.8391C9.59583 10.9162 9.76175 11.0467 9.87849 11.2141C9.99523 11.3816 10.0575 11.5784 10.0575 11.7798C10.0575 12.0499 9.94559 12.3088 9.74635 12.4998C9.54712 12.6907 9.2769 12.798 8.99514 12.798ZM12.7968 15.5543C12.7968 15.7568 12.7129 15.9511 12.5634 16.0943C12.414 16.2375 12.2113 16.318 12 16.318C11.7887 16.318 11.586 16.2375 11.4366 16.0943C11.2871 15.9511 11.2032 15.7568 11.2032 15.5543V9.44521C11.2032 9.24269 11.2871 9.04845 11.4366 8.90524C11.586 8.76203 11.7887 8.68158 12 8.68158C12.2113 8.68158 12.414 8.76203 12.5634 8.90524C12.7129 9.04845 12.7968 9.24269 12.7968 9.44521V15.5543ZM15.0049 14.2379C14.7947 14.2379 14.5893 14.1782 14.4146 14.0663C14.2399 13.9544 14.1037 13.7954 14.0233 13.6094C13.9429 13.4233 13.9219 13.2186 13.9629 13.0211C14.0039 12.8236 14.1051 12.6421 14.2536 12.4997C14.4022 12.3574 14.5915 12.2604 14.7976 12.2211C15.0037 12.1818 15.2173 12.202 15.4114 12.279C15.6056 12.3561 15.7715 12.4866 15.8882 12.654C16.005 12.8215 16.0673 13.0183 16.0673 13.2197C16.0673 13.4898 15.9553 13.7487 15.7561 13.9397C15.5569 14.1306 15.2866 14.2379 15.0049 14.2379Z" fill="white"/>
</svg>
