<svg width="44" height="44" viewBox="0 0 44 44" fill="none" xmlns="http://www.w3.org/2000/svg">
<circle cx="22" cy="22" r="22" fill="#8CBE3B"/>
<g clip-path="url(#clip0_33_518)">
<path d="M27.9999 16.0389C19.2647 8.7557 7.96594 20.1249 15.3534 28.8107C15.5365 29.0508 15.779 29.2391 16.0569 29.357C16.3348 29.475 16.6387 29.5185 16.9386 29.4833C17.2385 29.4481 17.524 29.3354 17.7671 29.1563C18.0102 28.9772 18.2024 28.7379 18.3249 28.4619C18.5852 28.0727 18.8364 27.1967 19.4394 27.2499H24.5574C25.1574 27.1944 25.4282 28.0967 25.6824 28.4844C25.8063 28.7521 25.9962 28.9838 26.2344 29.1577C26.4725 29.3316 26.751 29.442 27.0436 29.4786C27.3362 29.5151 27.6333 29.4766 27.9069 29.3665C28.1805 29.2565 28.4216 29.0786 28.6074 28.8497C29.4118 27.9702 30.0344 26.9404 30.4394 25.8194C30.8444 24.6985 31.0238 23.5085 30.9674 22.318C30.9109 21.1275 30.6197 19.9599 30.1104 18.8823C29.6012 17.8047 28.8839 16.8384 27.9999 16.0389ZM26.2802 19.5302L23.4489 22.3615C23.5344 22.6804 23.5123 23.0187 23.3859 23.3237C23.2596 23.6288 23.0361 23.8837 22.7501 24.0488C22.4642 24.2139 22.1317 24.2801 21.8043 24.237C21.4769 24.1939 21.1729 24.044 20.9394 23.8105C20.7059 23.577 20.556 23.2729 20.5129 22.9456C20.4698 22.6182 20.536 22.2857 20.7011 21.9997C20.8662 21.7138 21.1211 21.4903 21.4262 21.3639C21.7312 21.2376 22.0695 21.2155 22.3884 21.3009L25.2197 18.4697C25.3611 18.3331 25.5506 18.2575 25.7472 18.2592C25.9439 18.2609 26.132 18.3398 26.2711 18.4788C26.4101 18.6179 26.489 18.806 26.4907 19.0026C26.4924 19.1993 26.4168 19.3887 26.2802 19.5302Z" fill="#24273D"/>
</g>
<defs>
<clipPath id="clip0_33_518">
<rect width="18" height="18" fill="white" transform="translate(13 13)"/>
</clipPath>
</defs>
</svg>
