<svg width="24" height="25" viewBox="0 0 24 25" fill="none" xmlns="http://www.w3.org/2000/svg">
<g clip-path="url(#clip0_3_155)">
<path d="M12 0.78125C5.52792 0.78125 0.28125 6.02792 0.28125 12.5C0.28125 18.9721 5.52792 24.2188 12 24.2188C18.4721 24.2188 23.7188 18.9721 23.7188 12.5C23.7188 6.02792 18.4721 0.78125 12 0.78125ZM15.9981 13.772L12.036 16.6355C11.8922 18.1828 10.5688 19.3939 8.9745 19.3939C8.27415 19.3943 7.5945 19.1564 7.04732 18.7193C6.50015 18.2822 6.11803 17.6718 5.96381 16.9887L3.87919 16.1603V12.3087L7.40156 13.7173C7.95127 13.3892 8.56875 13.2421 9.28748 13.3052L11.8584 9.65544C11.8753 7.41842 13.7232 5.60614 15.9896 5.60614C18.2688 5.60614 20.1166 7.43947 20.1209 9.68488C20.1208 11.9469 18.2687 13.772 15.9981 13.772Z" fill="white"/>
<path d="M8.9745 14.0915C8.80945 14.091 8.64488 14.1094 8.484 14.1462L9.42698 14.5246C9.64582 14.6098 9.84557 14.7375 10.0147 14.9004C10.1838 15.0633 10.3188 15.2582 10.4121 15.4737C10.5053 15.6892 10.5548 15.9211 10.5577 16.1559C10.5606 16.3907 10.5169 16.6237 10.4291 16.8415C10.3401 17.0607 10.2088 17.2601 10.0426 17.4284C9.87641 17.5967 9.67867 17.7306 9.46067 17.8224C9.24268 17.9142 9.00872 17.9621 8.7722 17.9633C8.53567 17.9646 8.30122 17.9191 8.08228 17.8296C7.7144 17.6867 7.33809 17.5311 6.97021 17.3923C7.15473 17.7491 7.43093 18.0503 7.77042 18.265C8.10992 18.4797 8.50046 18.6001 8.9019 18.6138C9.30334 18.6276 9.7012 18.5342 10.0546 18.3432C10.408 18.1522 10.7041 17.8706 10.9126 17.5273C11.1211 17.1839 11.2343 16.7913 11.2408 16.3897C11.2472 15.988 11.1466 15.5919 10.9493 15.2421C10.7519 14.8922 10.465 14.6013 10.1179 14.399C9.77083 14.1968 9.37617 14.0907 8.9745 14.0915Z" fill="white"/>
<path d="M15.9938 6.95169C14.4588 6.95169 13.2199 8.17953 13.2199 9.68919C13.2199 11.2071 14.4631 12.4267 15.9938 12.4267C17.5118 12.4309 18.7594 11.2073 18.755 9.68919C18.755 8.17953 17.5118 6.95169 15.9938 6.95169ZM15.9874 11.333C15.663 11.3296 15.3469 11.2302 15.0788 11.0475C14.8108 10.8647 14.6028 10.6067 14.4811 10.306C14.3593 10.0053 14.3293 9.67529 14.3947 9.35754C14.4601 9.03978 14.6181 8.74847 14.8487 8.5203C15.0793 8.29213 15.3723 8.13729 15.6907 8.07527C16.0092 8.01326 16.3388 8.04684 16.6382 8.17179C16.9376 8.29674 17.1934 8.50748 17.3732 8.77747C17.5531 9.04746 17.6491 9.36463 17.6491 9.68905C17.6483 9.90621 17.6047 10.1211 17.5207 10.3213C17.4367 10.5216 17.314 10.7033 17.1596 10.856C17.0052 11.0088 16.8222 11.1295 16.6211 11.2114C16.4199 11.2932 16.2046 11.3346 15.9875 11.333H15.9874Z" fill="white"/>
</g>
<defs>
<clipPath id="clip0_3_155">
<rect width="24" height="24" fill="white" transform="translate(0 0.5)"/>
</clipPath>
</defs>
</svg>
