<svg width="26" height="26" viewBox="0 0 26 26" fill="none" xmlns="http://www.w3.org/2000/svg">
<path d="M23.6782 9.20669C23.3658 6.72918 22.167 4.44361 20.2833 2.74615C18.318 0.975254 15.7736 0 13.1188 0C10.472 0 7.9335 0.96982 5.97071 2.73076C4.09561 4.4132 2.89443 6.67931 2.5674 9.13844C1.08403 9.49371 0 10.8289 0 12.3621V15.4443C0 17.2733 1.50602 18.7613 3.35725 18.7613C5.20853 18.7613 6.71455 17.2732 6.71455 15.4443V12.3621C6.71455 11.1548 6.04729 10.0473 4.9922 9.46512C5.5187 5.42852 8.96573 2.41698 13.1188 2.41698C17.218 2.41698 20.6536 5.37855 21.2296 9.3533C20.0546 9.89224 19.2855 11.064 19.2855 12.3621V15.4443C19.2855 16.6741 19.9598 17.7786 21.0331 18.3555C18.4986 23.7247 13.4236 23.7567 12.6314 23.51C12.4237 23.0967 12.0551 22.7786 11.6054 22.6353C11.6054 22.6353 10.1613 22.1207 9.71938 22.1209C8.96061 22.1214 8.2941 22.6003 8.06086 23.3139C7.76598 24.2174 8.26978 25.1903 9.1842 25.4828C9.1842 25.4828 10.3557 25.9503 11.069 25.9969C11.6711 26.0362 12.2223 25.6922 12.5387 25.2009C17.4605 25.603 21.1801 22.6357 22.7156 18.7606C24.5333 18.7224 26 17.2495 26 15.4443V12.3621C26 10.9049 25.0588 9.64509 23.6782 9.20669Z" fill="#191B2D"/>
</svg>
