<svg width="90" height="44" viewBox="0 0 90 44" fill="none" xmlns="http://www.w3.org/2000/svg">
<g clip-path="url(#clip0_4_455)">
<path d="M22 44C34.1503 44 44 34.1503 44 22C44 9.84974 34.1503 0 22 0C9.84974 0 0 9.84974 0 22C0 34.1503 9.84974 44 22 44Z" fill="#F7931A"/>
<path d="M31.8848 19.2775C32.3166 16.3955 30.1207 14.8459 27.1204 13.8119L28.0939 9.90687L25.7179 9.31563L24.7692 13.1175C24.1449 12.9608 23.5042 12.815 22.8648 12.6692L23.8204 8.84263L21.4444 8.25L20.4709 12.1536C19.9539 12.0354 19.4452 11.9199 18.9529 11.7961L18.9557 11.7837L15.6777 10.9656L15.0452 13.5039C15.0452 13.5039 16.8093 13.9081 16.7722 13.9329C17.7347 14.1735 17.9079 14.8101 17.8791 15.3161L16.7708 19.7642C16.8368 19.7807 16.9221 19.8055 17.0183 19.8426L16.7667 19.7807L15.2129 26.0122C15.0947 26.3037 14.7963 26.7424 14.1226 26.576C14.1473 26.6104 12.3956 26.1456 12.3956 26.1456L11.2158 28.8654L14.3096 29.6368C14.8843 29.7811 15.4481 29.9324 16.0022 30.074L15.0191 34.023L17.3937 34.6143L18.3672 30.7092C19.0162 30.8839 19.6459 31.0461 20.2619 31.2001L19.2912 35.0886L21.6672 35.6799L22.6503 31.7391C26.7038 32.5064 29.7508 32.197 31.0337 28.5312C32.0677 25.5805 30.9828 23.8769 28.8502 22.7673C30.4039 22.4098 31.5727 21.3881 31.8848 19.2775ZM26.4536 26.8923C25.7207 29.8444 20.7501 28.248 19.1386 27.8479L20.4448 22.616C22.0563 23.0189 27.2222 23.815 26.4536 26.8923ZM27.1892 19.2349C26.5196 21.9202 22.3836 20.5549 21.0429 20.2208L22.2254 15.477C23.5661 15.8111 27.8877 16.434 27.1892 19.2349Z" fill="white"/>
</g>
<path d="M55.26 28.5V15.54H60.444C61.368 15.54 62.115 15.726 62.685 16.098C63.255 16.464 63.672 16.926 63.936 17.484C64.2 18.042 64.332 18.606 64.332 19.176C64.332 19.902 64.167 20.505 63.837 20.985C63.513 21.465 63.066 21.786 62.496 21.948V21.498C63.306 21.666 63.912 22.041 64.314 22.623C64.722 23.205 64.926 23.856 64.926 24.576C64.926 25.35 64.782 26.031 64.494 26.619C64.212 27.207 63.78 27.669 63.198 28.005C62.616 28.335 61.884 28.5 61.002 28.5H55.26ZM57.744 26.196H60.75C61.08 26.196 61.374 26.127 61.632 25.989C61.89 25.845 62.091 25.647 62.235 25.395C62.385 25.137 62.46 24.834 62.46 24.486C62.46 24.18 62.397 23.907 62.271 23.667C62.145 23.427 61.953 23.238 61.695 23.1C61.443 22.956 61.128 22.884 60.75 22.884H57.744V26.196ZM57.744 20.598H60.408C60.684 20.598 60.93 20.55 61.146 20.454C61.362 20.358 61.533 20.211 61.659 20.013C61.785 19.809 61.848 19.548 61.848 19.23C61.848 18.834 61.725 18.501 61.479 18.231C61.233 17.961 60.876 17.826 60.408 17.826H57.744V20.598ZM69.3754 28.5V17.826H65.2894V15.54H75.9094V17.826H71.8234V28.5H69.3754ZM82.9177 28.77C81.6217 28.77 80.5027 28.488 79.5607 27.924C78.6247 27.36 77.9017 26.571 77.3917 25.557C76.8877 24.543 76.6357 23.364 76.6357 22.02C76.6357 20.676 76.8877 19.497 77.3917 18.483C77.9017 17.469 78.6247 16.68 79.5607 16.116C80.5027 15.552 81.6217 15.27 82.9177 15.27C84.4057 15.27 85.6537 15.639 86.6617 16.377C87.6757 17.115 88.3897 18.114 88.8037 19.374L86.3377 20.058C86.0977 19.272 85.6927 18.663 85.1227 18.231C84.5527 17.793 83.8177 17.574 82.9177 17.574C82.0957 17.574 81.4087 17.757 80.8567 18.123C80.3107 18.489 79.8997 19.005 79.6237 19.671C79.3477 20.337 79.2097 21.12 79.2097 22.02C79.2097 22.92 79.3477 23.703 79.6237 24.369C79.8997 25.035 80.3107 25.551 80.8567 25.917C81.4087 26.283 82.0957 26.466 82.9177 26.466C83.8177 26.466 84.5527 26.247 85.1227 25.809C85.6927 25.371 86.0977 24.762 86.3377 23.982L88.8037 24.666C88.3897 25.926 87.6757 26.925 86.6617 27.663C85.6537 28.401 84.4057 28.77 82.9177 28.77Z" fill="white"/>
<defs>
<clipPath id="clip0_4_455">
<rect width="44" height="44" fill="white"/>
</clipPath>
</defs>
</svg>
