<svg width="84" height="46" viewBox="0 0 84 46" fill="none" xmlns="http://www.w3.org/2000/svg">
<path fill-rule="evenodd" clip-rule="evenodd" d="M16.5845 37.6505H12.9205L10.173 27.1687C10.0426 26.6865 9.76575 26.2603 9.35845 26.0594C8.34198 25.5545 7.2219 25.1527 6 24.95V24.5465H11.9023C12.7169 24.5465 13.3278 25.1527 13.4297 25.8567L14.8552 33.4176L18.5174 24.5465H22.0795L16.5845 37.6505ZM24.1163 37.6505H20.6561L23.5054 24.5465H26.9657L24.1163 37.6505ZM31.4416 28.1766C31.5434 27.4708 32.1544 27.0673 32.8671 27.0673C33.9872 26.9659 35.2073 27.1686 36.2256 27.6717L36.8365 24.8503C35.8183 24.4468 34.6982 24.2441 33.6817 24.2441C30.3233 24.2441 27.8795 26.0592 27.8795 28.5784C27.8795 30.4948 29.6105 31.5011 30.8324 32.1073C32.1544 32.7117 32.6635 33.1153 32.5617 33.7197C32.5617 34.6264 31.5434 35.03 30.5269 35.03C29.305 35.03 28.0831 34.7277 26.9648 34.2229L26.3539 37.046C27.5758 37.5491 28.8977 37.7517 30.1196 37.7517C33.8854 37.8513 36.2256 36.038 36.2256 33.3162C36.2256 29.8886 31.4416 29.6877 31.4416 28.1766V28.1766ZM48.3355 37.6505L45.588 24.5465H42.6369C42.0259 24.5465 41.415 24.95 41.2113 25.5545L36.1236 37.6505H39.6857L40.3967 35.7358H44.7734L45.1807 37.6505H48.3355ZM43.1466 28.0746L44.163 33.0133H41.3137L43.1466 28.0746Z" fill="white"/>
<path fill-rule="evenodd" clip-rule="evenodd" d="M70.2855 38.464C74.3605 38.464 77.6638 35.1223 77.6638 31.0001C77.6638 26.8779 74.3605 23.5361 70.2855 23.5361C68.4593 23.5361 66.7881 24.2073 65.4997 25.3191C64.2113 24.2073 62.54 23.5362 60.7138 23.5362C56.6389 23.5362 53.3355 26.8779 53.3355 31.0001C53.3355 35.1223 56.6389 38.4641 60.7138 38.4641C62.54 38.4641 64.2113 37.7929 65.4997 36.6811C66.7881 37.7929 68.4593 38.464 70.2855 38.464Z" fill="#EC383D"/>
<path fill-rule="evenodd" clip-rule="evenodd" d="M65.4976 36.6811C67.0841 35.312 68.0901 33.2749 68.0901 31.0001C68.0901 28.7253 67.0841 26.6881 65.4976 25.3191C66.786 24.2073 68.4573 23.5361 70.2835 23.5361C74.3584 23.5361 77.6618 26.8779 77.6618 31.0001C77.6618 35.1223 74.3584 38.464 70.2835 38.464C68.4573 38.464 66.786 37.7929 65.4976 36.6811Z" fill="#F3B544"/>
<path fill-rule="evenodd" clip-rule="evenodd" d="M65.4983 36.6805C67.0848 35.3115 68.0908 33.2744 68.0908 30.9996C68.0908 28.7248 67.0848 26.6876 65.4983 25.3186C63.9119 26.6876 62.9059 28.7248 62.9059 30.9996C62.9059 33.2744 63.9119 35.3115 65.4983 36.6805Z" fill="#FF5E00"/>
<g clip-path="url(#clip0_2214_5737)">
<path fill-rule="evenodd" clip-rule="evenodd" d="M64.5 5H55.2C55.7 8.1 58.7 11 62 11H69.4C69.5 10.7 69.5 10.3 69.5 10C69.5 7.2 67.3 5 64.5 5Z" fill="url(#paint0_linear_2214_5737)"/>
<path fill-rule="evenodd" clip-rule="evenodd" d="M56 11.5V19H60.5V15H64.5C66.7 15 68.6 13.5 69.2 11.5H56Z" fill="#4DB45F"/>
<path fill-rule="evenodd" clip-rule="evenodd" d="M40.0005 5V19H44.0005C44.0005 19 45.0005 19 45.5005 18C48.2005 12.6 49.0005 11 49.0005 11H49.5005V19H54.0005V5H50.0005C50.0005 5 49.0005 5.1 48.5005 6C46.2005 10.6 45.0005 13 45.0005 13H44.5005V5H40.0005Z" fill="#4DB45F"/>
<path fill-rule="evenodd" clip-rule="evenodd" d="M21 19V5H25.5C25.5 5 26.8 5 27.5 7C29.3 12.3 29.5 13 29.5 13C29.5 13 29.9 11.7 31.5 7C32.2 5 33.5 5 33.5 5H38V19H33.5V11.5H33L30.5 19H28.5L26 11.5H25.5V19H21Z" fill="#4DB45F"/>
</g>
<defs>
<linearGradient id="paint0_linear_2214_5737" x1="55.1742" y1="8" x2="69.5" y2="8" gradientUnits="userSpaceOnUse">
<stop stop-color="#00B4E6"/>
<stop offset="1" stop-color="#088CCB"/>
</linearGradient>
<clipPath id="clip0_2214_5737">
<rect width="49" height="14" fill="white" transform="translate(21 5)"/>
</clipPath>
</defs>
</svg>
