<svg width="84" height="46" viewBox="0 0 84 46" fill="none" xmlns="http://www.w3.org/2000/svg">
<path d="M67.3941 15.276V24.0774H64.282V17.9034H61.2855V24.0774H58.1733V15.2754H67.3941V15.276Z" fill="white"/>
<path fill-rule="evenodd" clip-rule="evenodd" d="M51.7818 24.3923C54.5678 24.3923 56.6366 22.6673 56.6366 20.0522C56.6366 17.5211 55.1102 15.8777 52.5593 15.8777C51.382 15.8777 50.4106 16.2962 49.6789 17.0183C49.8536 15.5258 51.1033 14.4362 52.4794 14.4362C52.7969 14.4362 55.1878 14.4311 55.1878 14.4311L56.5397 11.8184C56.5397 11.8184 53.5381 11.8874 52.1428 11.8874C48.9546 11.9435 46.8011 14.87 46.8011 18.4244C46.8011 22.5653 48.9014 24.3923 51.7818 24.3923ZM51.7988 18.1919C52.8332 18.1919 53.5503 18.8783 53.5503 20.0519C53.5503 21.1082 52.9131 21.9785 51.7988 21.9809C50.7329 21.9809 50.0158 21.1745 50.0158 20.0699C50.0158 18.896 50.7329 18.1919 51.7988 18.1919V18.1919Z" fill="white"/>
<path d="M44.268 21.1309C44.268 21.1309 43.533 21.5587 42.4353 21.6397C41.1734 21.6775 40.049 20.8726 40.049 19.4425C40.049 18.0475 41.0412 17.248 42.4035 17.248C43.2389 17.248 44.344 17.8327 44.344 17.8327C44.344 17.8327 45.1526 16.3342 45.5715 15.5848C44.8045 14.9977 43.7828 14.6758 42.5946 14.6758C39.5956 14.6758 37.2728 16.6504 37.2728 19.4248C37.2728 22.2346 39.456 24.1633 42.5946 24.1051C43.4718 24.0721 44.6821 23.761 45.4197 23.2825L44.268 21.1309Z" fill="white"/>
<path d="M6 12.8359L10.317 20.6284V25.3816L6.00505 33.1588L6 12.8359Z" fill="#5B57A2"/>
<path d="M22.5757 17.7929L26.6209 15.2891L34.8997 15.2812L22.5757 22.9054V17.7929Z" fill="#D90751"/>
<path d="M22.5528 12.7901L22.5757 23.1071L18.2485 20.4221V5L22.5531 12.7901H22.5528Z" fill="#FAB718"/>
<path d="M34.8997 15.2813L26.6206 15.2891L22.5528 12.7901L18.2485 5L34.8994 15.2813H34.8997Z" fill="#ED6F26"/>
<path d="M22.5757 33.202V28.1965L18.2485 25.5625L18.2509 40.9999L22.5757 33.202Z" fill="#63B22F"/>
<path d="M26.6108 30.721L10.3167 20.6284L6 12.8359L34.8821 30.7108L26.6105 30.721H26.6108Z" fill="#1487C9"/>
<path d="M18.2512 41L22.5754 33.2021L26.6105 30.7211L34.8819 30.7109L18.2512 41Z" fill="#017F36"/>
<path d="M6.00525 33.1589L18.2841 25.5629L14.156 23.0051L10.3172 25.3817L6.00525 33.1589Z" fill="#984995"/>
<path d="M40.0499 30.001C39.9549 30.1234 39.8298 30.2158 39.6798 30.2782C39.5259 30.3415 39.3612 30.3737 39.195 30.373C39.0297 30.3753 38.8653 30.3475 38.7098 30.2908C38.5702 30.2396 38.4425 30.1597 38.3349 30.0562C38.2287 29.9526 38.1453 29.8275 38.0902 29.689C38.0305 29.5374 38.0007 29.3755 38.0025 29.2123C38.0025 29.0503 38.0301 28.9003 38.0875 28.7581C38.1424 28.6156 38.2224 28.4935 38.3225 28.3909C38.4226 28.2862 38.5426 28.2064 38.6775 28.144C38.815 28.084 38.965 28.0516 39.1299 28.0516C39.3076 28.0516 39.4724 28.0741 39.6224 28.1188C39.7725 28.1638 39.8999 28.2388 40.0048 28.3438L39.8224 28.6558C39.7342 28.5751 39.6303 28.5138 39.5173 28.4758C39.4099 28.4409 39.2977 28.4233 39.1849 28.4236C39.085 28.4236 38.99 28.4434 38.8976 28.4809C38.8066 28.518 38.7234 28.5723 38.6525 28.6408C38.5801 28.7114 38.523 28.7964 38.485 28.8904C38.4425 28.9876 38.4226 29.095 38.4226 29.2147C38.4226 29.3371 38.4449 29.4469 38.4873 29.5417C38.5301 29.6392 38.5875 29.7217 38.6599 29.7913C38.7324 29.8615 38.8174 29.9137 38.9148 29.9488C39.0126 29.9863 39.1151 30.0037 39.225 30.0037C39.3598 30.0037 39.4825 29.9761 39.5874 29.9236C39.6913 29.873 39.7847 29.8027 39.8625 29.7166L40.0499 30.001ZM40.5648 30.3205V28.099H40.9599V29.7541L42.2447 28.099H42.6398V30.3208H42.2447V28.6657L40.9599 30.3208H40.5648V30.3205ZM45.257 30.001C45.1598 30.1245 45.0323 30.22 44.8871 30.2782C44.7331 30.3415 44.5683 30.3737 44.402 30.373C44.2368 30.3753 44.0726 30.3474 43.9172 30.2908C43.7775 30.2396 43.6497 30.1598 43.542 30.0562C43.4358 29.9526 43.3524 29.8275 43.2972 29.689C43.2375 29.5374 43.2078 29.3755 43.2096 29.2123C43.2096 29.0503 43.2372 28.9003 43.2945 28.7581C43.3498 28.6156 43.4297 28.4935 43.5295 28.3909C43.6296 28.2862 43.7497 28.2064 43.8845 28.144C44.027 28.0807 44.1813 28.0492 44.337 28.0516C44.5146 28.0516 44.6795 28.0741 44.8295 28.1188C44.9795 28.1638 45.107 28.2388 45.2121 28.3438L45.0294 28.6558C44.9414 28.5751 44.8376 28.5137 44.7246 28.4758C44.6172 28.4409 44.5051 28.4233 44.3922 28.4236C44.1936 28.4243 44.0029 28.5021 43.8596 28.6408C43.7878 28.7119 43.7308 28.7968 43.692 28.8904C43.6495 28.9876 43.6296 29.095 43.6296 29.2147C43.6296 29.3371 43.6522 29.4469 43.6947 29.5417C43.7372 29.6392 43.7945 29.7217 43.867 29.7913C43.9395 29.8615 44.0247 29.9137 44.1222 29.9488C44.2196 29.9836 44.3221 30.0037 44.432 30.0037C44.5672 30.0037 44.6872 29.9761 44.7945 29.9236C44.8984 29.873 44.9917 29.8027 45.0695 29.7166L45.257 30.001ZM45.4596 28.099H47.4868V28.4935H46.6719V30.3205H46.2768V28.4935H45.462V28.099H45.4596Z" fill="white"/>
<path fill-rule="evenodd" clip-rule="evenodd" d="M49.3319 30.2982C49.4819 30.2508 49.6094 30.1782 49.7193 30.0786L49.5993 29.769C49.5268 29.8341 49.4294 29.889 49.312 29.934C49.1944 29.979 49.0619 30.0012 48.9169 30.0012C48.6994 30.0012 48.5194 29.9439 48.3768 29.8266C48.2345 29.709 48.157 29.5446 48.1395 29.3346H49.8494C49.8669 29.2572 49.8744 29.1699 49.8744 29.0676C49.8744 28.9152 49.8467 28.7781 49.7918 28.6533C49.7406 28.5321 49.6659 28.4225 49.5719 28.3311C49.4767 28.2405 49.3645 28.1701 49.2419 28.1241C49.1136 28.0738 48.977 28.0484 48.8394 28.0491C48.6543 28.0491 48.4918 28.0815 48.3495 28.1415C48.215 28.1986 48.0933 28.2827 47.9918 28.3887C47.8933 28.4941 47.8176 28.619 47.7696 28.7556C47.7168 28.901 47.6905 29.0549 47.6921 29.2098C47.6921 29.3847 47.7221 29.5443 47.777 29.6868C47.8305 29.8248 47.9123 29.9499 48.0171 30.0537C48.1196 30.1557 48.2443 30.2334 48.392 30.2883C48.5501 30.3449 48.7168 30.3727 48.8845 30.3705C49.0364 30.3695 49.1873 30.3453 49.3319 30.2985V30.2982ZM48.332 28.5882C48.4544 28.476 48.6169 28.4211 48.8218 28.4211C49.0143 28.4211 49.1694 28.4736 49.282 28.5786C49.3946 28.6833 49.4543 28.8282 49.4644 29.0127H48.1145C48.1336 28.8493 48.2109 28.6986 48.332 28.5885V28.5882Z" fill="white"/>
<path d="M50.4117 28.0991H50.7718L51.6268 29.2001L52.4366 28.0991H52.7865V30.3209H52.3917V28.7009L51.6217 29.7317H51.6066L50.8068 28.7006V30.3206H50.4117V28.0991Z" fill="white"/>
<path fill-rule="evenodd" clip-rule="evenodd" d="M53.8614 28.1065C53.7415 28.1381 53.6269 28.1877 53.5215 28.2535L53.6264 28.5685C53.7164 28.5235 53.8064 28.486 53.8964 28.4536C53.9864 28.4209 54.1014 28.4059 54.239 28.4059C54.3489 28.4059 54.4365 28.4236 54.5039 28.4584C54.5714 28.4908 54.6213 28.5409 54.6563 28.6009C54.6914 28.6609 54.714 28.7356 54.7264 28.8229C54.7389 28.9102 54.744 29.005 54.744 29.1076C54.6631 29.0507 54.571 29.0123 54.4739 28.9951C54.3801 28.9762 54.2847 28.9662 54.189 28.9651C54.0714 28.9651 53.9615 28.9828 53.8563 29.0125C53.7515 29.0425 53.6614 29.0875 53.589 29.1475C53.515 29.2074 53.4552 29.2832 53.414 29.3695C53.3699 29.4639 53.3477 29.5672 53.3489 29.6716C53.3489 29.8888 53.4116 30.0586 53.5364 30.1786C53.6614 30.2983 53.8263 30.358 54.0313 30.358C54.2164 30.358 54.364 30.3256 54.4763 30.2608C54.5889 30.1957 54.6789 30.121 54.744 30.0361V30.3232H55.1138V28.9603C55.1138 28.6705 55.0514 28.4461 54.924 28.2886C54.7989 28.1314 54.5764 28.0516 54.2615 28.0516C54.1213 28.0516 53.9888 28.0714 53.8614 28.1065V28.1065ZM54.5218 29.9065C54.4317 29.9713 54.3141 30.001 54.1691 30.001C54.0417 30.001 53.9416 29.9686 53.8718 29.9062C53.8017 29.8414 53.7666 29.7565 53.7666 29.6515C53.7666 29.5894 53.7791 29.5369 53.8067 29.4895C53.8343 29.4421 53.8718 29.4046 53.9143 29.3746C53.9607 29.3432 54.0123 29.3204 54.0666 29.3071C54.1243 29.2921 54.1816 29.2846 54.2416 29.2846C54.4368 29.2846 54.6041 29.332 54.7416 29.4319V29.7139C54.6768 29.7872 54.6029 29.8519 54.5218 29.9062V29.9065ZM58.6014 27.3175C58.6814 27.2803 58.7562 27.2179 58.8263 27.1255L58.6112 26.8135C58.5563 26.8885 58.4939 26.9407 58.4238 26.9683C58.3495 26.9976 58.2725 27.0193 58.1939 27.0331L58.119 27.0466C58.0539 27.058 57.9841 27.0706 57.909 27.0832C57.7884 27.1057 57.671 27.1425 57.559 27.193C57.3814 27.2704 57.2391 27.3751 57.1315 27.5074C57.024 27.6397 56.939 27.7894 56.8814 27.9544C56.823 28.1215 56.7837 28.2948 56.7641 28.471C56.7439 28.651 56.7341 28.8229 56.7341 28.9876C56.7341 29.2 56.7614 29.392 56.8163 29.5642C56.8716 29.7367 56.9488 29.8813 57.0513 29.9986C57.1538 30.1186 57.2765 30.2086 57.4215 30.2734C57.5664 30.3382 57.7289 30.3706 57.9113 30.3706C58.0789 30.3706 58.234 30.3382 58.3739 30.2782C58.5088 30.2205 58.6311 30.1366 58.7339 30.0313C58.8337 29.9287 58.914 29.8063 58.9689 29.6692C59.0263 29.5318 59.0539 29.3845 59.0539 29.2297C59.0539 29.0626 59.0289 28.9105 58.9814 28.7755C58.9376 28.6468 58.8678 28.5287 58.7764 28.4287C58.6848 28.3303 58.573 28.2535 58.4487 28.2037C58.3119 28.1493 58.1659 28.1221 58.0189 28.1239C57.9238 28.1239 57.8314 28.1365 57.7414 28.1614C57.6539 28.1863 57.5698 28.2224 57.4913 28.2688C57.4151 28.3128 57.3453 28.3674 57.2839 28.4308C57.2239 28.4935 57.174 28.5634 57.139 28.6432H57.1289C57.1366 28.5409 57.1491 28.4362 57.1713 28.3288C57.1939 28.2214 57.2263 28.1188 57.2691 28.0216C57.3116 27.9244 57.3665 27.8368 57.434 27.757C57.5063 27.6764 57.5949 27.6126 57.6939 27.5698C57.8027 27.5174 57.9179 27.4797 58.0364 27.4576L58.1148 27.4432C58.193 27.4288 58.2675 27.415 58.3388 27.4C58.4339 27.3802 58.5212 27.355 58.6014 27.3178V27.3175ZM57.2114 29.452C57.1728 29.3259 57.1542 29.1945 57.1565 29.0626C57.1732 28.9869 57.2038 28.9149 57.2465 28.8505C57.289 28.783 57.3439 28.7233 57.409 28.6705C57.5558 28.5543 57.7373 28.4919 57.9238 28.4935C58.1564 28.4935 58.3314 28.5658 58.4538 28.7083C58.5765 28.8529 58.6365 29.0326 58.6365 29.2498C58.6365 29.3572 58.6163 29.4547 58.5815 29.5444C58.5478 29.6329 58.4967 29.7136 58.4314 29.7818C58.3662 29.8499 58.288 29.9042 58.2016 29.9413C58.1116 29.9812 58.0138 30.0013 57.9039 30.0013C57.794 30.0013 57.6939 29.9788 57.6015 29.9338C57.5097 29.8897 57.4285 29.8258 57.3638 29.7466C57.2961 29.6583 57.2445 29.5585 57.2114 29.452V29.452ZM62.0837 28.099H61.6886V30.3208H62.0837V28.099ZM59.6237 28.099H60.0188V28.7656H60.3839C60.5562 28.7656 60.6961 28.7881 60.8087 28.8304C60.9213 28.873 61.0113 28.9303 61.0787 29.0002C61.1462 29.0701 61.1937 29.1526 61.2213 29.2447C61.2486 29.3371 61.2638 29.4319 61.2638 29.5318C61.2638 29.6317 61.2486 29.7268 61.2163 29.8216C61.1863 29.9164 61.1337 29.9986 61.0636 30.0736C60.9938 30.1486 60.8987 30.2086 60.7787 30.2536C60.6587 30.2983 60.5137 30.3232 60.3387 30.3232H59.6213V28.099H59.6237ZM60.0188 29.1373V29.9512H60.3063C60.5039 29.9512 60.6438 29.9164 60.7237 29.8462C60.8039 29.7763 60.8437 29.6767 60.8437 29.5444C60.8437 29.4094 60.8013 29.3074 60.7213 29.2372C60.6388 29.1673 60.5012 29.1322 60.3114 29.1322H60.0188V29.1373Z" fill="white"/>
<path d="M64.6961 30.0011C64.601 30.1235 64.4759 30.2159 64.3259 30.2783C64.172 30.3415 64.0073 30.3737 63.8411 30.3731C63.6758 30.3753 63.5115 30.3475 63.356 30.2909C63.2163 30.2397 63.0886 30.1598 62.9811 30.0563C62.8748 29.9525 62.7913 29.8274 62.736 29.6891C62.6765 29.5374 62.6469 29.3755 62.6486 29.2124C62.6486 29.0504 62.676 28.9004 62.7336 28.7582C62.7886 28.6157 62.8685 28.4936 62.9686 28.391C63.0687 28.2863 63.1884 28.2065 63.3236 28.1441C63.466 28.0807 63.6204 28.0492 63.776 28.0517C63.9534 28.0517 64.1185 28.0742 64.2686 28.1189C64.4186 28.1639 64.546 28.2389 64.6509 28.3439L64.4685 28.6559C64.3803 28.5751 64.2764 28.5138 64.1634 28.4759C64.056 28.4409 63.9438 28.4233 63.831 28.4237C63.7312 28.4237 63.6361 28.4435 63.5434 28.481C63.4525 28.518 63.3694 28.5723 63.2986 28.6409C63.2267 28.7118 63.1698 28.7967 63.1311 28.8905C63.0886 28.9877 63.0687 29.0951 63.0687 29.2148C63.0687 29.3372 63.091 29.447 63.1335 29.5418C63.1759 29.6393 63.2336 29.7218 63.3061 29.7914C63.3785 29.8616 63.4635 29.9138 63.5609 29.9489C63.6587 29.9837 63.7612 30.0038 63.8711 30.0038C64.006 30.0038 64.126 29.9762 64.2335 29.9237C64.3374 29.873 64.4308 29.8027 64.5086 29.7167L64.6961 30.0011ZM64.8984 28.0991H66.9259V28.4936H66.1107V30.3206H65.7159V28.4936H64.901V28.0991H64.8984Z" fill="white"/>
<path fill-rule="evenodd" clip-rule="evenodd" d="M67.7508 28.0993H67.3557V31.3093H67.7508V30.2185C67.8307 30.271 67.9258 30.3085 68.0357 30.3334C68.1456 30.3583 68.2606 30.3706 68.3782 30.3706C68.5532 30.3706 68.7107 30.3382 68.8532 30.2785C68.99 30.2195 69.114 30.1338 69.2181 30.0265C69.3205 29.9188 69.3981 29.794 69.453 29.6467C69.508 29.4997 69.5356 29.3422 69.5356 29.1751C69.5356 29.0101 69.5107 28.858 69.4631 28.7206C69.4184 28.5901 69.3487 28.4698 69.2582 28.3663C69.1693 28.2654 69.059 28.1861 68.9355 28.1341C68.8006 28.0756 68.6549 28.0466 68.5081 28.0492C68.3533 28.0492 68.2083 28.0792 68.0708 28.1392C67.9332 28.1992 67.8257 28.2712 67.7508 28.3612V28.0993ZM68.0259 28.5112C68.1385 28.4512 68.2609 28.4212 68.3934 28.4212C68.5084 28.4212 68.6108 28.4386 68.7035 28.4761C68.7935 28.5136 68.8684 28.5661 68.9311 28.636C68.9935 28.7059 69.041 28.786 69.071 28.8805C69.1034 28.9753 69.1185 29.0779 69.1185 29.1901C69.1185 29.3101 69.0983 29.4172 69.0636 29.5171C69.0308 29.6119 68.9788 29.6986 68.9109 29.7718C68.8427 29.8442 68.76 29.9011 68.6685 29.9389C68.5664 29.9821 68.4565 30.0034 68.3459 30.0013C68.2386 30.0013 68.1385 29.989 68.0434 29.9641C67.9394 29.9355 67.8406 29.8899 67.7511 29.8291V28.7281C67.8209 28.6435 67.9136 28.5712 68.0259 28.5112V28.5112ZM72.5654 28.099H72.1703V30.3208H72.5654V28.099ZM70.103 28.099H70.4981V28.7656H70.8629C71.0355 28.7656 71.1755 28.7881 71.288 28.8304C71.4006 28.873 71.4906 28.9303 71.5581 29.0002C71.6255 29.0701 71.673 29.1526 71.7004 29.2447C71.728 29.3371 71.7429 29.4319 71.7429 29.5318C71.7429 29.6317 71.728 29.7268 71.6956 29.8216C71.6656 29.9164 71.613 29.9986 71.5429 30.0736C71.4731 30.1486 71.3781 30.2086 71.258 30.2536C71.138 30.2983 70.9931 30.3232 70.8181 30.3232H70.1007V28.099H70.103ZM70.5008 29.1373V29.9512H70.7884C70.9856 29.9512 71.1258 29.9164 71.2058 29.8462C71.2857 29.7763 71.3258 29.6767 71.3258 29.5444C71.3258 29.4094 71.2833 29.3074 71.2034 29.2372C71.1208 29.1673 70.9832 29.1322 70.7934 29.1322H70.5008V29.1373Z" fill="white"/>
<path d="M74.4606 29.1701L75.3054 30.3209H74.8206L74.1679 29.4221L73.5055 30.3209H73.0456L73.8854 29.1899L73.0955 28.0991H73.5806L74.1831 28.9379L74.7954 28.0991H75.2555L74.4606 29.1701ZM39.7576 33.0668H38.5453V34.919H38.1501V32.6975H40.1524V34.919H39.7576V33.0668ZM42.3947 33.0917H41.6149L41.5896 33.4661C41.5623 33.7832 41.5249 34.0379 41.4723 34.2323C41.4197 34.4273 41.3547 34.577 41.2798 34.6817C41.2049 34.7867 41.1173 34.859 41.0172 34.8941C40.9139 34.9319 40.8047 34.9505 40.6949 34.949L40.6649 34.5644C40.7073 34.5668 40.7572 34.5569 40.8122 34.532C40.8675 34.5071 40.9224 34.4522 40.9747 34.37C41.0273 34.2848 41.0748 34.1651 41.1173 34.0103C41.1598 33.8531 41.1874 33.6485 41.2023 33.3911L41.2424 32.6996H42.7898V34.9214H42.3947V33.0914V33.0917Z" fill="white"/>
<path fill-rule="evenodd" clip-rule="evenodd" d="M43.8548 32.7026C43.727 32.7374 43.6121 32.7872 43.5146 32.8496L43.6198 33.1643C43.7098 33.1193 43.7998 33.0818 43.8895 33.0494C43.9796 33.017 44.0948 33.002 44.2321 33.002C44.3423 33.002 44.4296 33.0194 44.4971 33.0542C44.5648 33.0869 44.6147 33.1367 44.6497 33.1967C44.6845 33.2567 44.7071 33.3317 44.7196 33.4187C44.732 33.5063 44.7371 33.6011 44.7371 33.7034C44.6562 33.6466 44.5641 33.6083 44.4671 33.5912C44.3732 33.5724 44.2778 33.5623 44.1822 33.5612C44.0648 33.5612 43.9546 33.5786 43.8497 33.6086C43.7446 33.6386 43.6546 33.6836 43.5821 33.7436C43.5081 33.8035 43.4483 33.8794 43.4071 33.9656C43.3632 34.0601 43.341 34.1634 43.3423 34.2677C43.3423 34.4846 43.4047 34.6547 43.5298 34.7744C43.6546 34.8941 43.8197 34.9541 44.0247 34.9541C44.2098 34.9541 44.3571 34.9217 44.4697 34.8566C44.582 34.7918 44.672 34.7168 44.7371 34.6319V34.919H45.1072V33.5561C45.1072 33.2666 45.0446 33.0419 44.9171 32.8847C44.792 32.7272 44.5695 32.6477 44.2546 32.6477C44.1195 32.6478 43.9851 32.6662 43.8548 32.7023V32.7026ZM44.5173 34.502C44.4275 34.5671 44.3099 34.5971 44.1649 34.5971C44.0348 34.5971 43.9374 34.5647 43.8676 34.502C43.7975 34.4372 43.7624 34.3523 43.7624 34.2476C43.7624 34.1852 43.7749 34.1327 43.8025 34.0853C43.8298 34.0379 43.8676 34.0004 43.91 33.9704C43.9525 33.9404 44.0048 33.9179 44.0624 33.9029C44.1196 33.888 44.1784 33.8805 44.2374 33.8807C44.4323 33.8807 44.5998 33.9281 44.7374 34.0277V34.3097C44.6725 34.3831 44.5985 34.4477 44.5173 34.502V34.502Z" fill="white"/>
<path d="M45.4943 32.6975H47.5218V33.0917H46.7066V34.919H46.3118V33.092H45.4969V32.6975H45.4943Z" fill="white"/>
<path fill-rule="evenodd" clip-rule="evenodd" d="M49.3669 34.8963C49.5169 34.8489 49.6443 34.7763 49.7542 34.6767L49.6342 34.3671C49.5617 34.4322 49.4643 34.4871 49.3467 34.5321C49.2293 34.5771 49.0968 34.5993 48.9519 34.5993C48.7344 34.5993 48.5544 34.542 48.4118 34.4247C48.2692 34.3074 48.192 34.1427 48.1744 33.9327H49.8844C49.9016 33.8556 49.9093 33.768 49.9093 33.6657C49.9093 33.5136 49.8817 33.3762 49.8267 33.2514C49.7755 33.1303 49.7007 33.0208 49.6066 32.9295C49.5116 32.8388 49.3994 32.7683 49.2769 32.7222C49.1485 32.672 49.012 32.6465 48.8743 32.6472C48.6893 32.6472 48.5268 32.6796 48.3845 32.7396C48.2498 32.7966 48.1281 32.8808 48.0268 32.9868C47.9283 33.0923 47.8525 33.2172 47.8043 33.3537C47.7516 33.4992 47.7253 33.653 47.7267 33.8079C47.7267 33.9828 47.7567 34.1424 47.8117 34.2849C47.867 34.4271 47.9492 34.5495 48.0517 34.6518C48.1542 34.7541 48.2793 34.8315 48.4269 34.8864C48.5849 34.9431 48.7516 34.9711 48.9192 34.9689C49.0668 34.9689 49.2168 34.9437 49.3669 34.8963V34.8963ZM48.3646 33.1839C48.4869 33.0717 48.6494 33.0168 48.8544 33.0168C49.0496 33.0168 49.202 33.0717 49.3146 33.174C49.4269 33.279 49.4869 33.4236 49.497 33.6084H48.1471C48.1662 33.445 48.2434 33.2941 48.3646 33.1839V33.1839ZM50.1018 32.6973H50.6018L51.3641 33.7683L50.5492 34.9188H50.0644L50.9191 33.768L50.1018 32.697V32.6973ZM51.4615 32.6973H51.8566V34.9188H51.4615V32.6973ZM53.2689 34.9188L52.3991 33.768L53.2116 32.697H52.7214L51.9541 33.768L52.779 34.9188H53.2689ZM55.0739 34.8963C55.2239 34.8489 55.3514 34.7763 55.4613 34.6767L55.3413 34.3671C55.2688 34.4322 55.1713 34.4871 55.054 34.5321C54.9364 34.5771 54.8039 34.5993 54.6589 34.5993C54.4414 34.5993 54.2614 34.542 54.1188 34.4247C53.9765 34.3074 53.899 34.1427 53.8815 33.9327H55.5914C55.6089 33.8556 55.6164 33.768 55.6164 33.6657C55.6164 33.5136 55.589 33.3762 55.5338 33.2514C55.4826 33.1303 55.4078 33.0209 55.3139 32.9295C55.2188 32.8388 55.1066 32.7683 54.9839 32.7222C54.8556 32.6719 54.719 32.6465 54.5814 32.6472C54.3966 32.6472 54.2341 32.6796 54.0915 32.7396C53.957 32.7967 53.8354 32.8808 53.7341 32.9868C53.6354 33.0921 53.5596 33.2171 53.5116 33.3537C53.4588 33.4991 53.4325 33.653 53.4341 33.8079C53.4341 33.9828 53.4641 34.1424 53.519 34.2849C53.574 34.4271 53.6566 34.5495 53.7591 34.6518C53.8616 34.7541 53.9863 34.8315 54.134 34.8864C54.292 34.9431 54.4588 34.9711 54.6265 34.9689C54.7784 34.9678 54.9293 34.9433 55.0739 34.8963V34.8963ZM54.0716 33.1839C54.1943 33.0717 54.3568 33.0168 54.5617 33.0168C54.7543 33.0168 54.909 33.0717 55.0216 33.174C55.1342 33.279 55.1942 33.4236 55.204 33.6084H53.8541C53.8732 33.445 53.9505 33.2941 54.0716 33.1839V33.1839ZM57.2191 31.9509C56.9864 31.9509 56.859 31.821 56.8391 31.5615H56.4666C56.4666 31.6611 56.4841 31.7511 56.5165 31.836C56.5492 31.9209 56.5967 31.9932 56.6591 32.0532C56.7215 32.1132 56.8017 32.1606 56.8941 32.1978C56.9864 32.2353 57.094 32.2527 57.2164 32.2527C57.329 32.2527 57.4291 32.2353 57.5191 32.1978C57.6091 32.163 57.684 32.1132 57.749 32.0532C57.8114 31.9932 57.8616 31.9209 57.8964 31.836C57.9314 31.7511 57.949 31.6611 57.949 31.5615H57.5791C57.5616 31.821 57.4389 31.9509 57.2191 31.9509V31.9509ZM56.1514 32.697V34.9188H56.5465L57.8313 33.2637V34.9188H58.2264V32.697H57.8313L56.5465 34.3521V32.697H56.1514Z" fill="white"/>
</svg>
