<svg width="92" height="44" viewBox="0 0 92 44" fill="none" xmlns="http://www.w3.org/2000/svg">
<path d="M22 44C34.1503 44 44 34.1503 44 22C44 9.84974 34.1503 0 22 0C9.84973 0 0 9.84974 0 22C0 34.1503 9.84973 44 22 44Z" fill="#0088CC"/>
<path fill-rule="evenodd" clip-rule="evenodd" d="M15.873 14.6H28.2236C28.6607 14.6 29.0972 14.6628 29.5535 14.8708C30.0996 15.1199 30.3908 15.5129 30.5936 15.8035C30.6094 15.8261 30.6243 15.8495 30.6381 15.8734C30.8768 16.284 31.0015 16.7485 31 17.2208C31 17.6784 30.8884 18.1797 30.6381 18.6155C30.6357 18.6198 30.6331 18.6239 30.6308 18.6279L22.827 31.7348C22.7425 31.8768 22.6212 31.9946 22.4753 32.0762C22.3295 32.1579 22.1642 32.2006 21.9961 32.2C21.828 32.1994 21.6631 32.1556 21.5178 32.0729C21.3726 31.9902 21.2522 31.8715 21.1687 31.7289L13.5098 18.6508L13.503 18.6401C13.3277 18.3577 13.0568 17.9207 13.009 17.3571C12.9649 16.8385 13.0842 16.3192 13.3509 15.8689C13.6176 15.4186 14.0189 15.0589 14.5009 14.8382C15.0183 14.6018 15.5425 14.6 15.873 14.6ZM21.0436 16.4724H15.873C15.5332 16.4724 15.4029 16.4927 15.3116 16.5344C15.1846 16.5926 15.079 16.6876 15.009 16.8064C14.938 16.9268 14.9062 17.0653 14.9177 17.2038C14.9245 17.2833 14.9578 17.3744 15.1536 17.6901L15.1655 17.7099L21.0436 27.7457V16.4724ZM22.9586 16.4724V27.7953L28.9727 17.6942C29.0489 17.5478 29.088 17.3856 29.0866 17.2213C29.0883 17.0823 29.0542 16.9452 28.9875 16.8224C28.9421 16.7548 28.8913 16.6909 28.8354 16.6313C28.8102 16.6045 28.7798 16.5828 28.7459 16.5677C28.6037 16.5029 28.4581 16.4724 28.2259 16.4724H22.9586Z" fill="white"/>
<path d="M58.266 28.5V17.826H54.18V15.54H64.8V17.826H60.714V28.5H58.266ZM71.8083 28.77C70.5123 28.77 69.3933 28.488 68.4513 27.924C67.5153 27.36 66.7923 26.571 66.2823 25.557C65.7783 24.543 65.5263 23.364 65.5263 22.02C65.5263 20.676 65.7783 19.497 66.2823 18.483C66.7923 17.469 67.5153 16.68 68.4513 16.116C69.3933 15.552 70.5123 15.27 71.8083 15.27C73.1043 15.27 74.2203 15.552 75.1563 16.116C76.0983 16.68 76.8213 17.469 77.3253 18.483C77.8353 19.497 78.0903 20.676 78.0903 22.02C78.0903 23.364 77.8353 24.543 77.3253 25.557C76.8213 26.571 76.0983 27.36 75.1563 27.924C74.2203 28.488 73.1043 28.77 71.8083 28.77ZM71.8083 26.466C72.6303 26.478 73.3143 26.301 73.8603 25.935C74.4063 25.569 74.8143 25.05 75.0843 24.378C75.3603 23.706 75.4983 22.92 75.4983 22.02C75.4983 21.12 75.3603 20.34 75.0843 19.68C74.8143 19.02 74.4063 18.507 73.8603 18.141C73.3143 17.775 72.6303 17.586 71.8083 17.574C70.9863 17.562 70.3023 17.739 69.7563 18.105C69.2103 18.471 68.7993 18.99 68.5233 19.662C68.2533 20.334 68.1183 21.12 68.1183 22.02C68.1183 22.92 68.2533 23.7 68.5233 24.36C68.7993 25.02 69.2103 25.533 69.7563 25.899C70.3023 26.265 70.9863 26.454 71.8083 26.466ZM79.887 28.5V15.54H82.371L88.005 24.18V15.54H90.489V28.5H88.005L82.371 19.86V28.5H79.887Z" fill="white"/>
</svg>
