<svg width="90" height="44" viewBox="0 0 90 44" fill="none" xmlns="http://www.w3.org/2000/svg">
<g clip-path="url(#clip0_4_535)">
<path d="M22 44C34.1503 44 44 34.1503 44 22C44 9.84974 34.1503 0 22 0C9.84974 0 0 9.84974 0 22C0 34.1503 9.84974 44 22 44Z" fill="#EF0027"/>
<path d="M30.1565 13.6302L10.3125 9.97818L20.7556 36.2572L35.3072 18.5279L30.1565 13.6302ZM29.8375 15.2389L32.8735 18.1251L24.5712 19.6279L29.8375 15.2389ZM22.7673 19.3268L14.0168 12.0696L28.3195 14.7013L22.7673 19.3268ZM22.1444 20.6111L20.7171 32.4086L13.024 13.0444L22.1444 20.6097V20.6111ZM23.4644 21.2367L32.659 19.5729L22.1128 32.4196L23.4644 21.2367Z" fill="white"/>
</g>
<path d="M58.266 28.5V17.826H54.18V15.54H64.8V17.826H60.714V28.5H58.266ZM66.2463 28.5V15.54H71.7183C71.8443 15.54 72.0123 15.546 72.2223 15.558C72.4383 15.564 72.6303 15.582 72.7983 15.612C73.5723 15.732 74.2053 15.987 74.6973 16.377C75.1953 16.767 75.5613 17.259 75.7953 17.853C76.0293 18.441 76.1463 19.098 76.1463 19.824C76.1463 20.91 75.8763 21.84 75.3363 22.614C74.7963 23.382 73.9503 23.856 72.7983 24.036L71.7183 24.108H68.6943V28.5H66.2463ZM73.5543 28.5L70.9983 23.226L73.5183 22.74L76.3263 28.5H73.5543ZM68.6943 21.822H71.6103C71.7363 21.822 71.8743 21.816 72.0243 21.804C72.1743 21.792 72.3123 21.768 72.4383 21.732C72.7683 21.642 73.0233 21.492 73.2033 21.282C73.3833 21.066 73.5063 20.829 73.5723 20.571C73.6443 20.307 73.6803 20.058 73.6803 19.824C73.6803 19.59 73.6443 19.344 73.5723 19.086C73.5063 18.822 73.3833 18.585 73.2033 18.375C73.0233 18.159 72.7683 18.006 72.4383 17.916C72.3123 17.88 72.1743 17.856 72.0243 17.844C71.8743 17.832 71.7363 17.826 71.6103 17.826H68.6943V21.822ZM77.2249 28.5L81.5809 21.948L77.3509 15.54H80.3569L83.1109 19.86L85.8289 15.54H88.8529L84.6229 21.948L88.9609 28.5H85.9549L83.1109 24.036L80.2489 28.5H77.2249Z" fill="white"/>
<defs>
<clipPath id="clip0_4_535">
<rect width="44" height="44" fill="white"/>
</clipPath>
</defs>
</svg>
