<svg width="103" height="44" viewBox="0 0 103 44" fill="none" xmlns="http://www.w3.org/2000/svg">
<g clip-path="url(#clip0_4_528)">
<path d="M22 44C34.1503 44 44 34.1503 44 22C44 9.84974 34.1503 0 22 0C9.84974 0 0 9.84974 0 22C0 34.1503 9.84974 44 22 44Z" fill="#26A17B"/>
<path fill-rule="evenodd" clip-rule="evenodd" d="M24.6428 23.902V23.8993C24.4916 23.9103 23.712 23.957 21.9726 23.957C20.5838 23.957 19.6062 23.9158 19.2625 23.8993V23.9034C13.9165 23.6683 9.92622 22.7374 9.92622 21.6237C9.92622 20.5113 13.9165 19.5804 19.2625 19.3412V22.9766C19.6117 23.0014 20.6127 23.0605 21.996 23.0605C23.6556 23.0605 24.4875 22.9918 24.6428 22.978V19.3439C29.9778 19.5818 33.9585 20.5127 33.9585 21.6237C33.9585 22.7374 29.9778 23.6655 24.6428 23.902ZM24.6428 18.9658V15.7125H32.0871V10.7515H11.8182V15.7125H19.2625V18.9644C13.2125 19.2422 8.6626 20.4412 8.6626 21.8766C8.6626 23.3122 13.2125 24.5098 19.2625 24.7889V35.2142H24.6428V24.7861C30.6832 24.5084 35.2221 23.3108 35.2221 21.8766C35.2221 20.4425 30.6832 19.2449 24.6428 18.9658Z" fill="white"/>
</g>
<path d="M60.534 28.77C59.49 28.77 58.572 28.56 57.78 28.14C56.988 27.714 56.37 27.117 55.926 26.349C55.482 25.581 55.26 24.678 55.26 23.64V15.558L57.744 15.54V23.622C57.744 24.048 57.816 24.435 57.96 24.783C58.104 25.131 58.302 25.431 58.554 25.683C58.812 25.935 59.109 26.13 59.445 26.268C59.787 26.4 60.15 26.466 60.534 26.466C60.93 26.466 61.296 26.397 61.632 26.259C61.974 26.121 62.271 25.926 62.523 25.674C62.775 25.422 62.97 25.122 63.108 24.774C63.252 24.426 63.324 24.042 63.324 23.622V15.54H65.808V23.64C65.808 24.678 65.586 25.581 65.142 26.349C64.698 27.117 64.08 27.714 63.288 28.14C62.496 28.56 61.578 28.77 60.534 28.77ZM72.6716 28.77C71.7116 28.77 70.8446 28.602 70.0706 28.266C69.3026 27.924 68.6696 27.438 68.1716 26.808C67.6796 26.172 67.3676 25.416 67.2356 24.54L69.7916 24.162C69.9716 24.906 70.3436 25.479 70.9076 25.881C71.4716 26.283 72.1136 26.484 72.8336 26.484C73.2356 26.484 73.6256 26.421 74.0036 26.295C74.3816 26.169 74.6906 25.983 74.9306 25.737C75.1766 25.491 75.2996 25.188 75.2996 24.828C75.2996 24.696 75.2786 24.57 75.2366 24.45C75.2006 24.324 75.1376 24.207 75.0476 24.099C74.9576 23.991 74.8286 23.889 74.6606 23.793C74.4986 23.697 74.2916 23.61 74.0396 23.532L70.6736 22.542C70.4216 22.47 70.1276 22.368 69.7916 22.236C69.4616 22.104 69.1406 21.915 68.8286 21.669C68.5166 21.423 68.2556 21.099 68.0456 20.697C67.8416 20.289 67.7396 19.776 67.7396 19.158C67.7396 18.288 67.9586 17.565 68.3966 16.989C68.8346 16.413 69.4196 15.984 70.1516 15.702C70.8836 15.42 71.6936 15.282 72.5816 15.288C73.4756 15.3 74.2736 15.453 74.9756 15.747C75.6776 16.041 76.2656 16.47 76.7396 17.034C77.2136 17.592 77.5556 18.276 77.7656 19.086L75.1196 19.536C75.0236 19.116 74.8466 18.762 74.5886 18.474C74.3306 18.186 74.0216 17.967 73.6616 17.817C73.3076 17.667 72.9356 17.586 72.5456 17.574C72.1616 17.562 71.7986 17.616 71.4566 17.736C71.1206 17.85 70.8446 18.018 70.6286 18.24C70.4186 18.462 70.3136 18.726 70.3136 19.032C70.3136 19.314 70.4006 19.545 70.5746 19.725C70.7486 19.899 70.9676 20.04 71.2316 20.148C71.4956 20.256 71.7656 20.346 72.0416 20.418L74.2916 21.03C74.6276 21.12 74.9996 21.24 75.4076 21.39C75.8156 21.534 76.2056 21.738 76.5776 22.002C76.9556 22.26 77.2646 22.602 77.5046 23.028C77.7506 23.454 77.8736 23.994 77.8736 24.648C77.8736 25.344 77.7266 25.953 77.4326 26.475C77.1446 26.991 76.7546 27.42 76.2626 27.762C75.7706 28.098 75.2126 28.35 74.5886 28.518C73.9706 28.686 73.3316 28.77 72.6716 28.77ZM79.8518 28.5V15.54H84.0458C84.1478 15.54 84.3578 15.543 84.6758 15.549C84.9938 15.555 85.2998 15.576 85.5938 15.612C86.6378 15.738 87.5228 16.101 88.2488 16.701C88.9748 17.301 89.5268 18.063 89.9048 18.987C90.2828 19.911 90.4718 20.922 90.4718 22.02C90.4718 23.118 90.2828 24.129 89.9048 25.053C89.5268 25.977 88.9748 26.739 88.2488 27.339C87.5228 27.939 86.6378 28.302 85.5938 28.428C85.2998 28.464 84.9938 28.485 84.6758 28.491C84.3578 28.497 84.1478 28.5 84.0458 28.5H79.8518ZM82.3358 26.196H84.0458C84.2078 26.196 84.4268 26.193 84.7028 26.187C84.9788 26.175 85.2278 26.148 85.4498 26.106C86.0138 25.992 86.4728 25.728 86.8268 25.314C87.1868 24.9 87.4508 24.402 87.6188 23.82C87.7928 23.238 87.8798 22.638 87.8798 22.02C87.8798 21.372 87.7898 20.757 87.6098 20.175C87.4358 19.593 87.1688 19.101 86.8088 18.699C86.4488 18.297 85.9958 18.042 85.4498 17.934C85.2278 17.886 84.9788 17.859 84.7028 17.853C84.4268 17.847 84.2078 17.844 84.0458 17.844H82.3358V26.196ZM95.2855 28.5V17.826H91.1995V15.54H101.82V17.826H97.7335V28.5H95.2855Z" fill="white"/>
<defs>
<clipPath id="clip0_4_528">
<rect width="44" height="44" fill="white"/>
</clipPath>
</defs>
</svg>
