<svg width="200" height="200" viewBox="0 0 200 200" fill="none" xmlns="http://www.w3.org/2000/svg">
<circle opacity="0.15" cx="100" cy="100" r="39" fill="#8CBE3B"/>
<circle opacity="0.05" cx="100" cy="100" r="57.5" stroke="#8CBE3B"/>
<circle opacity="0.05" cx="100" cy="100" r="77.5" stroke="#8CBE3B"/>
<g filter="url(#filter0_f_33_559)">
<circle cx="100" cy="100" r="25" fill="#8CBE3B" fill-opacity="0.54"/>
</g>
<circle cx="100" cy="100" r="25" fill="#8CBE3B"/>
<g clip-path="url(#clip0_33_559)">
<path d="M107.083 94.1665H105.471C105.638 93.8682 105.756 93.5415 105.805 93.1924C105.911 92.4524 105.722 91.7165 105.274 91.119C104.826 90.5207 104.172 90.1332 103.432 90.0274C102.694 89.9232 101.956 90.1107 101.358 90.5582C100.778 90.9932 100.337 91.5549 100 92.1265C99.6633 91.5557 99.2217 90.9932 98.6417 90.559C98.0442 90.1107 97.3075 89.924 96.5683 90.0282C95.8283 90.134 95.1742 90.5215 94.7267 91.119C94.2783 91.7165 94.0892 92.4532 94.195 93.1924C94.245 93.5415 94.3617 93.8699 94.5275 94.1665H92.9167C91.3083 94.1665 90 95.4749 90 97.0832V97.4999C90 98.419 90.7475 99.1665 91.6667 99.1665H108.333C109.253 99.1665 110 98.419 110 97.4999V97.0832C110 95.4749 108.692 94.1665 107.083 94.1665ZM102.358 91.8924C102.598 91.7115 102.898 91.634 103.196 91.6782C103.494 91.7207 103.759 91.8774 103.941 92.119C104.123 92.3607 104.198 92.6582 104.156 92.9565C104.113 93.2557 103.957 93.5199 103.688 93.7215C103.658 93.7457 103.38 93.9532 102.84 94.1657H100.917C101.102 93.5349 101.542 92.504 102.358 91.8915L102.358 91.8924ZM96.285 93.7015C96.0442 93.5199 95.8867 93.2557 95.845 92.9565C95.8025 92.6582 95.8783 92.3607 96.0608 92.1182C96.2417 91.8765 96.5058 91.7199 96.805 91.6774C97.1 91.634 97.4017 91.7107 97.6433 91.8924C98.46 92.5049 98.8992 93.5349 99.085 94.1665H97.1617C96.6217 93.954 96.3417 93.7449 96.2867 93.7015H96.285ZM101.103 104.704C100.859 104.497 100.77 104.159 100.881 103.858C100.991 103.557 101.278 103.357 101.598 103.357H103.89L104.702 101.081C104.813 100.782 105.098 100.583 105.418 100.583C105.737 100.583 106.023 100.782 106.133 101.081L106.945 103.357H109.237C109.558 103.357 109.845 103.558 109.955 103.859C110.065 104.161 109.975 104.499 109.729 104.706L107.922 106.178L108.669 108.455C108.772 108.763 108.667 109.102 108.41 109.3C108.153 109.497 107.798 109.512 107.527 109.335L105.423 107.965L103.355 109.349C103.227 109.435 103.078 109.478 102.93 109.478C102.768 109.478 102.608 109.427 102.472 109.326C102.212 109.132 102.104 108.794 102.201 108.485L102.919 106.181L101.103 104.703V104.704ZM100.874 110H95.8333C93.5325 110 91.6667 108.134 91.6667 105.833V100.833H103.02L102.714 101.691H101.598C100.581 101.691 99.6642 102.332 99.3167 103.282C98.9658 104.235 99.25 105.317 100.052 105.997L100.993 106.762L100.611 107.987C100.394 108.678 100.508 109.411 100.874 110Z" fill="#24273D"/>
</g>
<defs>
<filter id="filter0_f_33_559" x="0" y="0" width="200" height="200" filterUnits="userSpaceOnUse" color-interpolation-filters="sRGB">
<feFlood flood-opacity="0" result="BackgroundImageFix"/>
<feBlend mode="normal" in="SourceGraphic" in2="BackgroundImageFix" result="shape"/>
<feGaussianBlur stdDeviation="37.5" result="effect1_foregroundBlur_33_559"/>
</filter>
<clipPath id="clip0_33_559">
<rect width="20" height="20" fill="white" transform="translate(90 90)"/>
</clipPath>
</defs>
</svg>
