<svg width="180" height="37" viewBox="0 0 180 37" fill="none" xmlns="http://www.w3.org/2000/svg">
<path d="M32.0548 24.1095C32.0548 25.3026 31.4935 26.4242 30.5439 27.1283L18.2026 36.2795C16.9071 37.2402 15.1478 37.2402 13.8523 36.2795L1.51088 27.1283C0.56131 26.4242 -5.65461e-06 25.3026 0 24.1094L9.65189e-05 3.74295C0.000109045 1.0999 2.62954 -0.708912 5.05002 0.269064L8.72465 1.75377C10.6044 2.51325 11.5292 4.66789 10.7968 6.58127L8.70459 12.0469C8.57303 12.3906 8.61759 12.7781 8.8236 13.0818C9.02853 13.3839 9.3669 13.5644 9.72841 13.5644H11.0187C13.3289 13.5644 15.0245 15.7662 14.4655 18.0402L13.261 22.9394C13.2104 23.1451 13.1585 23.3585 13.202 23.5659C13.2735 23.9074 13.5213 24.0622 13.8201 24.051C14.2788 24.0337 14.5884 23.6036 14.8371 23.2122L23.959 8.86014C24.1653 8.53558 24.1798 8.12247 23.9968 7.78387C23.8147 7.44694 23.466 7.2375 23.0872 7.2375H21.7112C20.0538 7.2375 18.9439 5.50844 19.6143 3.97076C19.8571 3.414 20.3053 2.97598 20.8628 2.75072L27.0049 0.269075C29.4254 -0.708904 32.0548 1.09992 32.0548 3.74298V24.1095Z" fill="url(#paint0_linear_4_694)"/>
<path d="M177.66 27.5716C176.838 27.5716 176.132 27.4952 175.541 27.3423C174.95 27.1724 174.465 26.9006 174.087 26.5269C173.71 26.1531 173.43 25.669 173.25 25.0744C173.069 24.4628 172.979 23.7153 172.979 22.832V17.124H171.377V13.9132H172.979V10.8554H176.773V13.9132H179.754V17.124H176.773V22.1949C176.773 22.9594 176.888 23.503 177.118 23.8258C177.364 24.1485 177.832 24.3099 178.522 24.3099C179.015 24.3099 179.507 24.2844 180 24.2335V27.4442C179.688 27.4782 179.359 27.5037 179.015 27.5207C178.67 27.5546 178.218 27.5716 177.66 27.5716Z" fill="white"/>
<path d="M164.118 27.75C163.05 27.75 162.13 27.6396 161.358 27.4187C160.603 27.1809 159.979 26.8666 159.486 26.4759C158.993 26.0682 158.624 25.601 158.378 25.0744C158.131 24.5308 157.992 23.9532 157.959 23.3416H161.753C161.851 23.7323 162.065 24.0636 162.393 24.3354C162.722 24.6072 163.297 24.7431 164.118 24.7431C164.955 24.7431 165.555 24.6242 165.916 24.3864C166.294 24.1485 166.483 23.8342 166.483 23.4435C166.483 23.2906 166.442 23.1547 166.36 23.0358C166.277 22.8999 166.121 22.781 165.892 22.6791C165.678 22.5601 165.382 22.4497 165.005 22.3478C164.627 22.2459 164.142 22.1439 163.551 22.042C162.828 21.9231 162.147 21.7702 161.506 21.5833C160.866 21.3965 160.307 21.1501 159.831 20.8443C159.371 20.5216 159.002 20.1139 158.722 19.6212C158.46 19.1286 158.328 18.5085 158.328 17.761C158.328 17.1664 158.46 16.6143 158.722 16.1047C158.985 15.595 159.363 15.1533 159.856 14.7796C160.365 14.4059 160.973 14.1171 161.679 13.9132C162.401 13.6924 163.214 13.5819 164.118 13.5819C165.136 13.5819 165.99 13.7094 166.68 13.9642C167.386 14.219 167.961 14.5588 168.404 14.9835C168.848 15.3912 169.176 15.8583 169.39 16.385C169.603 16.9116 169.735 17.4467 169.784 17.9904H165.99C165.892 17.5487 165.678 17.2089 165.35 16.9711C165.021 16.7162 164.61 16.5888 164.118 16.5888C163.362 16.5888 162.837 16.7078 162.541 16.9456C162.262 17.1834 162.122 17.4637 162.122 17.7865C162.122 18.1432 162.352 18.4235 162.812 18.6274C163.272 18.8143 164.003 18.9757 165.005 19.1116C165.711 19.2135 166.384 19.3579 167.025 19.5448C167.665 19.7316 168.224 19.9949 168.7 20.3347C169.193 20.6575 169.579 21.0737 169.858 21.5833C170.137 22.076 170.277 22.6791 170.277 23.3926C170.277 24.6836 169.751 25.7369 168.7 26.5523C167.665 27.3508 166.138 27.75 164.118 27.75Z" fill="white"/>
<path d="M148.283 27.75C146.789 27.75 145.647 27.3083 144.859 26.4249C144.071 25.5415 143.676 24.1995 143.676 22.3987V13.9132H147.47V21.7872C147.47 22.6706 147.643 23.3416 147.988 23.8003C148.349 24.2589 148.924 24.4883 149.712 24.4883C150.566 24.4883 151.19 24.2335 151.584 23.7238C151.995 23.1972 152.2 22.5516 152.2 21.7872V13.9132H155.994V27.4187H152.496V25.584C152.168 26.1786 151.65 26.6882 150.944 27.1129C150.238 27.5376 149.351 27.75 148.283 27.75Z" fill="white"/>
<path d="M134.2 13.9132H137.699V15.7479C137.797 15.5271 137.945 15.2893 138.142 15.0344C138.356 14.7796 138.602 14.5418 138.881 14.3209C139.16 14.1001 139.472 13.9217 139.817 13.7858C140.179 13.6499 140.565 13.5819 140.975 13.5819C141.254 13.5819 141.476 13.5989 141.64 13.6329C141.805 13.6669 141.952 13.7009 142.084 13.7348V17.124C142.002 17.073 141.813 17.0135 141.517 16.9456C141.222 16.8776 140.877 16.8437 140.482 16.8437C139.612 16.8437 138.98 17.107 138.585 17.6336C138.191 18.1602 137.994 18.7973 137.994 19.5448V27.4187H134.2V13.9132Z" fill="white"/>
<path d="M123.721 13.3526H118.424V9.58126H133.452V13.3526H128.156V27.4187H123.721V13.3526Z" fill="white"/>
<path d="M99.58 13.9132H103.152V15.8499C103.448 15.2553 103.908 14.7286 104.532 14.27C105.156 13.8113 105.928 13.5819 106.848 13.5819C107.882 13.5819 108.679 13.7858 109.237 14.1935C109.812 14.6012 110.231 15.1533 110.494 15.8499C110.822 15.2043 111.323 14.6692 111.997 14.2445C112.686 13.8028 113.508 13.5819 114.46 13.5819C115.873 13.5819 116.948 13.9982 117.687 14.8306C118.427 15.646 118.796 16.8691 118.796 18.5V27.4187H115.002V19.4683C115.002 18.517 114.854 17.846 114.559 17.4552C114.279 17.0475 113.82 16.8437 113.179 16.8437C112.604 16.8437 112.111 17.0815 111.701 17.5572C111.29 18.0158 111.085 18.6529 111.085 19.4683V27.4187H107.291V19.4683C107.291 18.517 107.143 17.846 106.848 17.4552C106.568 17.0475 106.108 16.8437 105.468 16.8437C104.877 16.8437 104.376 17.0815 103.965 17.5572C103.571 18.0158 103.374 18.6529 103.374 19.4683V27.4187H99.58V13.9132Z" fill="white"/>
<path d="M89.3543 27.75C88.6481 27.75 88.0158 27.6396 87.4574 27.4187C86.9154 27.1979 86.4555 26.9006 86.0778 26.5269C85.7 26.1361 85.4126 25.6859 85.2155 25.1763C85.0184 24.6497 84.9199 24.0806 84.9199 23.469C84.9199 22.1269 85.314 21.0992 86.1024 20.3857C86.9072 19.6722 88.1143 19.3154 89.7239 19.3154H93.4439V18.7548C93.4439 17.9394 93.255 17.3788 92.8773 17.073C92.4995 16.7502 91.9822 16.5888 91.3252 16.5888C90.7011 16.5888 90.2412 16.6908 89.9456 16.8946C89.65 17.0985 89.4857 17.4213 89.4529 17.8629H85.659C85.6918 17.2514 85.8396 16.6908 86.1024 16.1811C86.3652 15.6545 86.7347 15.2043 87.211 14.8306C87.7037 14.4398 88.3032 14.1341 89.0094 13.9132C89.7157 13.6924 90.5287 13.5819 91.4484 13.5819C92.3025 13.5819 93.0826 13.6839 93.7888 13.8877C94.5115 14.0746 95.1274 14.3889 95.6365 14.8306C96.1457 15.2553 96.5398 15.8159 96.8191 16.5124C97.0983 17.1919 97.2379 18.0243 97.2379 19.0096V23.9786C97.2379 24.6921 97.2543 25.3207 97.2871 25.8643C97.32 26.391 97.3693 26.9091 97.435 27.4187H93.8381C93.8052 27.1299 93.7724 26.8751 93.7396 26.6543C93.7231 26.4334 93.7149 26.1616 93.7149 25.8388C93.3207 26.3825 92.7705 26.8411 92.0643 27.2149C91.3745 27.5716 90.4712 27.75 89.3543 27.75ZM90.5861 24.9979C91.3909 24.9979 92.0643 24.7601 92.6063 24.2844C93.1647 23.8088 93.4439 23.1547 93.4439 22.3223V21.7617H90.463C89.9045 21.7617 89.4857 21.9146 89.2065 22.2204C88.9437 22.5262 88.8124 22.8829 88.8124 23.2906C88.8124 23.7833 88.9437 24.191 89.2065 24.5138C89.4857 24.8365 89.9456 24.9979 90.5861 24.9979Z" fill="white"/>
<path d="M77.0401 27.75C76.0875 27.75 75.1924 27.6141 74.3548 27.3423C73.5336 27.0535 72.8191 26.6203 72.2114 26.0427C71.6037 25.4651 71.1274 24.7431 70.7825 23.8767C70.4376 22.9933 70.2652 21.9656 70.2652 20.7934V20.2837C70.2652 19.1625 70.4294 18.1857 70.7579 17.3533C71.1028 16.5209 71.5627 15.8244 72.1375 15.2638C72.7288 14.7032 73.4186 14.287 74.2069 14.0151C75.0117 13.7263 75.874 13.5819 76.7937 13.5819C78.9453 13.5819 80.5712 14.1595 81.6716 15.3147C82.772 16.4529 83.3223 18.1093 83.3223 20.2837V21.6853H74.1577C74.1741 22.2119 74.2644 22.6621 74.4287 23.0358C74.5929 23.3926 74.8064 23.6898 75.0692 23.9277C75.332 24.1655 75.6276 24.3439 75.9561 24.4628C76.301 24.5647 76.6623 24.6157 77.0401 24.6157C77.7627 24.6157 78.3294 24.5053 78.74 24.2844C79.167 24.0466 79.4462 23.7323 79.5776 23.3416H83.0759C82.8131 24.8196 82.1644 25.9238 81.1297 26.6543C80.0949 27.3848 78.7318 27.75 77.0401 27.75ZM76.9169 16.6908C76.572 16.6908 76.2353 16.7332 75.9068 16.8182C75.5948 16.9031 75.3074 17.0475 75.0446 17.2514C74.7982 17.4382 74.5929 17.6846 74.4287 17.9904C74.2808 18.2961 74.1987 18.6699 74.1823 19.1116H79.6022C79.6022 18.6359 79.5283 18.2452 79.3805 17.9394C79.2327 17.6336 79.0356 17.3873 78.7892 17.2004C78.5593 17.0135 78.2801 16.8861 77.9516 16.8182C77.6231 16.7332 77.2782 16.6908 76.9169 16.6908Z" fill="white"/>
<path d="M66.4367 27.5716C65.6155 27.5716 64.9093 27.4952 64.318 27.3423C63.7268 27.1724 63.2423 26.9006 62.8645 26.5269C62.4868 26.1531 62.2076 25.669 62.0269 25.0744C61.8462 24.4628 61.7559 23.7153 61.7559 22.832V17.124H60.1546V13.9132H61.7559V10.8554H65.5499V13.9132H68.5308V17.124H65.5499V22.1949C65.5499 22.9594 65.6648 23.503 65.8948 23.8258C66.1411 24.1485 66.6092 24.3099 67.299 24.3099C67.7917 24.3099 68.2844 24.2844 68.7772 24.2335V27.4442C68.4651 27.4782 68.1366 27.5037 67.7917 27.5207C67.4468 27.5546 66.9952 27.5716 66.4367 27.5716Z" fill="white"/>
<path d="M51.6512 27.75C49.2368 27.75 47.4302 27.2658 46.2313 26.2975C45.0487 25.3292 44.4328 24.0041 44.3836 22.3223H48.818C48.9494 22.9679 49.2368 23.4435 49.6803 23.7493C50.1237 24.0381 50.7807 24.1825 51.6512 24.1825C53.5399 24.1825 54.4843 23.6389 54.4843 22.5517C54.4843 22.1949 54.394 21.9061 54.2133 21.6853C54.0327 21.4474 53.7699 21.2436 53.425 21.0737C53.0801 20.8868 52.653 20.7254 52.1439 20.5895C51.6348 20.4536 51.0435 20.3092 50.3701 20.1563C49.5161 19.9525 48.7441 19.7146 48.0543 19.4428C47.3809 19.154 46.8061 18.7888 46.3298 18.3471C45.8699 17.9054 45.5086 17.3788 45.2458 16.7672C44.9995 16.1387 44.8763 15.3912 44.8763 14.5248C44.8763 13.6924 45.0323 12.9534 45.3444 12.3079C45.6564 11.6453 46.1081 11.0932 46.6993 10.6515C47.2906 10.1928 48.0051 9.84458 48.8427 9.60675C49.6803 9.36892 50.6165 9.25 51.6512 9.25C53.9177 9.25 55.6012 9.70018 56.7016 10.6006C57.8184 11.5009 58.4343 12.775 58.5493 14.4229H54.1148C54.0162 13.8792 53.7781 13.48 53.4003 13.2252C53.0226 12.9534 52.4395 12.8175 51.6512 12.8175C50.7807 12.8175 50.173 12.9619 49.8281 13.2507C49.4832 13.5395 49.3108 13.9132 49.3108 14.3719C49.3108 15.0005 49.6228 15.4591 50.2469 15.7479C50.8875 16.0367 51.8072 16.3 53.0062 16.5379C53.8931 16.7248 54.6978 16.9541 55.4205 17.2259C56.1596 17.4807 56.7837 17.829 57.2928 18.2707C57.8184 18.6954 58.2208 19.222 58.5 19.8506C58.7792 20.4621 58.9188 21.2181 58.9188 22.1185C58.9188 23.8852 58.2783 25.2697 56.9972 26.272C55.7161 27.2574 53.9341 27.75 51.6512 27.75Z" fill="white"/>
<defs>
<linearGradient id="paint0_linear_4_694" x1="13.8462" y1="-8.01667" x2="20.809" y2="59.5674" gradientUnits="userSpaceOnUse">
<stop stop-color="#8CBE3B"/>
<stop offset="1" stop-color="#586E36"/>
</linearGradient>
</defs>
</svg>
