<svg width="22" height="22" viewBox="0 0 22 22" fill="none" xmlns="http://www.w3.org/2000/svg">
<g clip-path="url(#clip0_4_705)">
<path d="M12.8853 11C12.8853 12.0411 12.0412 12.8853 11 12.8853C9.95888 12.8853 9.11477 12.0411 9.11477 11C9.11477 9.95886 9.95888 9.11475 11 9.11475C12.0412 9.11475 12.8853 9.95886 12.8853 11Z" fill="#717488"/>
<path d="M14.184 5.30235H7.81604C6.42992 5.30235 5.30237 6.4299 5.30237 7.81602V14.184C5.30237 15.5701 6.42992 16.6977 7.81604 16.6977H14.184C15.5701 16.6977 16.6977 15.5701 16.6977 14.184V7.81602C16.6977 6.4299 15.5701 5.30235 14.184 5.30235ZM11 14.1421C9.26746 14.1421 7.85793 12.7326 7.85793 11C7.85793 9.26743 9.26746 7.85791 11 7.85791C12.7326 7.85791 14.1421 9.26743 14.1421 11C14.1421 12.7326 12.7326 14.1421 11 14.1421ZM14.603 8.02549C14.2559 8.02549 13.9745 7.74417 13.9745 7.39707C13.9745 7.04997 14.2559 6.76865 14.603 6.76865C14.9501 6.76865 15.2314 7.04997 15.2314 7.39707C15.2314 7.74417 14.9501 8.02549 14.603 8.02549Z" fill="#717488"/>
<path d="M16.0693 0.275002H5.93079C2.81226 0.275002 0.275024 2.81224 0.275024 5.93076V16.0692C0.275024 19.1878 2.81226 21.725 5.93079 21.725H16.0693C19.1878 21.725 21.725 19.1878 21.725 16.0692V5.93076C21.725 2.81224 19.1878 0.275002 16.0693 0.275002ZM17.9545 14.184C17.9545 16.263 16.263 17.9545 14.184 17.9545H7.81604C5.73702 17.9545 4.04553 16.263 4.04553 14.184V7.81602C4.04553 5.737 5.73702 4.04551 7.81604 4.04551H14.184C16.263 4.04551 17.9545 5.737 17.9545 7.81602V14.184Z" fill="#717488"/>
</g>
<defs>
<clipPath id="clip0_4_705">
<rect width="22" height="22" fill="white"/>
</clipPath>
</defs>
</svg>
