<svg width="22" height="22" viewBox="0 0 22 22" fill="none" xmlns="http://www.w3.org/2000/svg">
<g clip-path="url(#clip0_4_699)">
<path d="M13.9857 7.40569L8.08266 11.0414C7.85641 11.181 7.74988 11.4543 7.82299 11.71L8.46123 13.9527C8.50654 14.1116 8.73721 14.0953 8.75918 13.9311L8.92514 12.7012C8.95642 12.4697 9.06688 12.2564 9.23812 12.097L14.1098 7.5685C14.2009 7.48399 14.0918 7.34054 13.9857 7.40569Z" fill="#717488"/>
<path fill-rule="evenodd" clip-rule="evenodd" d="M21.3561 4.11215C21.3235 3.79089 21.2491 3.47733 21.1373 3.17811C20.9465 2.64992 20.6393 2.16631 20.2343 1.76322C19.6012 1.13182 18.7726 0.736369 17.8835 0.643052C13.3077 0.152318 8.69001 0.152318 4.11419 0.643052C3.2251 0.735278 2.39652 1.13029 1.76344 1.76184C1.13037 2.39338 0.734701 3.22313 0.641602 4.11215C0.152832 8.69088 0.152832 13.3086 0.641602 17.8874C0.734701 18.7753 1.13037 19.604 1.76344 20.2355C2.39186 20.8669 3.22044 21.263 4.10954 21.3576C8.68535 21.8484 13.3031 21.8484 17.8789 21.3576C18.768 21.264 19.5965 20.8684 20.2296 20.2369C20.8627 19.6053 21.2584 18.776 21.3561 17.8874C21.8449 13.3086 21.8449 8.69088 21.3561 4.11215ZM7.10198 11.6415L4.08156 10.5142C3.77478 10.3992 3.77211 9.9661 4.07802 9.84813L16.4739 5.06616C16.7367 4.96452 17.0079 5.19475 16.9506 5.47073L14.7261 16.1711C14.6737 16.4238 14.3775 16.5383 14.1684 16.3864L11.1317 14.1817C10.9473 14.0478 10.6959 14.0549 10.5194 14.1987L8.83578 15.5713C8.64034 15.7311 8.34588 15.6421 8.27107 15.4013L7.10198 11.6415Z" fill="#717488"/>
</g>
<defs>
<clipPath id="clip0_4_699">
<rect width="22" height="22" fill="white"/>
</clipPath>
</defs>
</svg>
