<svg width="22" height="22" viewBox="0 0 22 22" fill="none" xmlns="http://www.w3.org/2000/svg">
<g clip-path="url(#clip0_4_701)">
<path d="M21.3561 4.1121C21.2625 3.22386 20.8667 2.39469 20.2351 1.76324C19.6034 1.13179 18.7741 0.736337 17.8858 0.643011C13.3092 0.152332 8.69327 0.152332 4.11667 0.643011C3.22752 0.735286 2.39708 1.13027 1.76442 1.76182C1.13177 2.39337 0.735325 3.22312 0.64149 4.1121C0.152869 8.69085 0.152869 13.3086 0.64149 17.8873C0.736173 18.7753 1.13222 19.604 1.76367 20.2355C2.39511 20.8669 3.22384 21.263 4.1118 21.3576C8.6884 21.8483 13.3043 21.8483 17.8809 21.3576C18.7698 21.264 19.5996 20.8684 20.2321 20.2369C20.8645 19.6053 21.2612 18.776 21.3561 17.8873C21.8447 13.3086 21.8447 8.69085 21.3561 4.1121ZM17.0584 14.835C16.7465 14.8788 15.2209 14.835 15.1417 14.835C14.7464 14.8395 14.3653 14.6875 14.0816 14.4122C13.7599 14.1014 13.4724 13.7603 13.158 13.4373C13.0654 13.3382 12.9647 13.2469 12.857 13.1644C12.606 12.9719 12.3574 13.0157 12.2392 13.3118C12.1469 13.6318 12.0825 13.9592 12.0467 14.2903C12.026 14.5888 11.8359 14.7777 11.4996 14.7972C11.2913 14.8094 11.0829 14.813 10.877 14.8082C10.1264 14.803 9.3877 14.6201 8.72142 14.2745C8.00044 13.8731 7.37223 13.3242 6.87781 12.6636C6.06507 11.6254 5.4156 10.4849 4.83559 9.30904C4.80513 9.24933 4.2105 7.98574 4.19588 7.92481C4.14226 7.7262 4.19588 7.53489 4.36038 7.46787C4.46517 7.42766 6.42453 7.46787 6.45743 7.46787C6.60316 7.46707 6.74538 7.51253 6.86362 7.59771C6.98187 7.68289 7.07003 7.80339 7.11542 7.94187C7.47763 8.8693 7.97353 9.73877 8.58738 10.5227C8.67333 10.6271 8.77387 10.7186 8.88592 10.7944C9.04554 10.9041 9.19663 10.8663 9.26243 10.6811C9.34051 10.4258 9.38635 10.1618 9.39891 9.89514C9.40987 9.36631 9.39891 9.01904 9.36966 8.4902C9.35017 8.15146 9.23075 7.85536 8.73116 7.7591C8.57763 7.73107 8.56423 7.60435 8.66293 7.47762C8.86886 7.21564 9.15033 7.173 9.46592 7.15837C9.93627 7.13035 10.4066 7.14862 10.877 7.15837H10.9793C11.184 7.15662 11.3883 7.17705 11.5886 7.2193C11.7069 7.24385 11.8143 7.30578 11.8948 7.39594C11.9753 7.4861 12.0247 7.59974 12.0358 7.72011C12.06 7.85353 12.0702 7.98911 12.0662 8.12465C12.054 8.701 12.026 9.27858 12.0199 9.85493C12.0143 10.0836 12.0351 10.3122 12.0821 10.5361C12.1491 10.8444 12.3599 10.9199 12.5695 10.6981C12.8411 10.4125 13.09 10.1061 13.314 9.78182C13.7107 9.18939 14.0378 8.55319 14.2888 7.88582C14.4253 7.54342 14.5325 7.46787 14.898 7.46787H16.9768C17.1004 7.4657 17.2236 7.48214 17.3424 7.51661C17.3844 7.52766 17.4237 7.54726 17.4578 7.57419C17.4919 7.60112 17.52 7.63479 17.5405 7.67311C17.561 7.71143 17.5733 7.75357 17.5768 7.79688C17.5802 7.84019 17.5746 7.88374 17.5605 7.92481C17.4581 8.38175 17.212 8.76924 16.9512 9.14332C16.5284 9.74161 16.0824 10.3253 15.6499 10.9163C15.5949 10.9943 15.5448 11.0757 15.5 11.16C15.3367 11.4536 15.3489 11.6181 15.5853 11.8618C15.963 12.2505 16.3663 12.6136 16.7307 13.0133C16.9979 13.3041 17.2393 13.6176 17.452 13.9503C17.7189 14.3646 17.5544 14.7594 17.0572 14.8301L17.0584 14.835Z" fill="#717488"/>
</g>
<defs>
<clipPath id="clip0_4_701">
<rect width="22" height="22" fill="white"/>
</clipPath>
</defs>
</svg>
